<?xml version="1.0" encoding="iso-8859-1"?>
<!-- Generator: Adobe Illustrator 19.0.0, SVG Export Plug-In . SVG Version: 6.00 Build 0)  -->
<svg version="1.1" id="Capa_1" xmlns="http://www.w3.org/2000/svg" xmlns:xlink="http://www.w3.org/1999/xlink" x="0px" y="0px"
	 viewBox="0 0 512 512" style="enable-background:new 0 0 512 512;" xml:space="preserve">
<g>
	<g>
		<path d="M133.43,29.136c-4.148,0-7.511,3.363-7.511,7.511V53.54c0,4.148,3.363,7.511,7.511,7.511s7.511-3.363,7.511-7.511V36.647
			C140.941,32.499,137.578,29.136,133.43,29.136z"/>
	</g>
</g>
<g>
	<g>
		<path d="M176.192,29.136c-4.148,0-7.511,3.363-7.511,7.511V53.54c0,4.148,3.363,7.511,7.511,7.511
			c4.148,0,7.511-3.363,7.511-7.511V36.647C183.703,32.499,180.34,29.136,176.192,29.136z"/>
	</g>
</g>
<g>
	<g>
		<path d="M218.954,29.136c-4.148,0-7.511,3.363-7.511,7.511V53.54c0,4.148,3.363,7.511,7.511,7.511s7.511-3.363,7.511-7.511V36.647
			C226.465,32.499,223.102,29.136,218.954,29.136z"/>
	</g>
</g>
<g>
	<g>
		<path d="M261.716,29.136c-4.148,0-7.511,3.363-7.511,7.511V53.54c0,4.148,3.363,7.511,7.511,7.511s7.511-3.363,7.511-7.511V36.647
			C269.227,32.499,265.864,29.136,261.716,29.136z"/>
	</g>
</g>
<g>
	<g>
		<path d="M304.478,29.136c-4.148,0-7.511,3.363-7.511,7.511V53.54c0,4.148,3.363,7.511,7.511,7.511
			c4.148,0,7.511-3.363,7.511-7.511V36.647C311.989,32.499,308.627,29.136,304.478,29.136z"/>
	</g>
</g>
<g>
	<g>
		<path d="M430.22,356.828c-35.145-35.143-92.13-35.417-127.641-0.863c2.857-7.854,4.628-16.074,5.171-24.285
			c1.833-27.708-9.841-51.154-30.465-61.187c-13.139-6.393-25.657-8.628-38.266-6.842c-3.27,0.464-6.48,1.14-9.585,1.795
			c-2.74,0.578-5.403,1.124-7.99,1.515c0.501-4.336,1.33-8.242,2.4-11.759c0.639-1.056,1.048-2.246,1.184-3.492
			c4.969-13.212,13.361-20.225,19.11-23.662c3.454-2.065,4.58-6.54,2.515-9.993c-2.065-3.454-6.541-4.579-9.993-2.515
			c-7.824,4.678-13.639,10.625-17.97,17.014c-4.311-8.266-11.113-17.089-21.478-21.097c-15.985-6.18-33.846-6.03-40.781-5.676
			c-2.67,0.134-5.155,1.538-6.647,3.755c-1.493,2.218-1.858,5.05-0.975,7.579c1.843,5.274,7.285,18.705,17.967,29.489
			c9.959,10.053,21.811,15.158,34.888,15.158c1.951,0,3.93-0.121,5.933-0.349c-0.296,1.753-0.529,3.44-0.707,5.032
			c-1.181-0.266-2.382-0.558-3.607-0.858c-2.972-0.729-6.047-1.482-9.246-1.936c-12.606-1.786-25.123,0.45-38.265,6.842
			c-20.64,10.041-32.312,33.506-30.461,61.236c1.103,16.53,7.172,33.09,17.085,46.63c11.174,15.261,27.019,26.616,45.822,32.836
			c2.014,0.666,4.12,0.923,6.304,0.923c3.583,0,7.373-0.694,11.297-1.412c3.648-0.667,7.42-1.358,10.633-1.358
			c2.805,0,6.493,0.655,10.06,1.287c6.706,1.191,13.04,2.313,18.443,0.52c13.688-4.547,25.794-11.828,35.677-21.346
			c-11.756,32.205-4.757,69.77,21.038,95.567c4.625,4.625,9.636,8.631,14.919,12.049H92.966c-12.811,0-23.234-10.423-23.234-23.234
			v-24.637H249.8c4.025,0,7.287-3.262,7.287-7.287c0-4.025-3.262-7.287-7.287-7.287H69.732V192.927h298.444v111.002
			c0,4.025,3.262,7.287,7.287,7.287c4.025,0,7.287-3.262,7.287-7.287v-133.17c0-14.459-7.723-28.027-20.156-35.409l-41.433-24.604
			v-20.56h11.608c12.018,0,21.796-9.778,21.796-21.797V21.797C354.565,9.778,344.787,0,332.769,0h-227.63
			C93.121,0,83.343,9.778,83.343,21.797v46.592c0,12.019,9.778,21.797,21.796,21.797h11.608v20.56L75.315,135.35
			c-12.433,7.382-20.156,20.95-20.156,35.409v303.434c0,20.847,16.96,37.807,37.807,37.807h251.975c2.788,0,5.565-0.327,8.283-0.937
			c4.218,0.591,8.469,0.894,12.72,0.894c23.277,0,46.553-8.86,64.274-26.58c17.168-17.169,26.623-39.995,26.623-64.275
			C456.843,396.823,447.388,373.997,430.22,356.828z M105.139,75.613c-3.983,0-7.223-3.241-7.223-7.224V21.797
			c0-3.983,3.24-7.224,7.223-7.224h227.63c3.983,0,7.223,3.241,7.223,7.224v46.592c0,3.983-3.24,7.224-7.223,7.224H105.139z
			 M306.588,90.186v17.421H131.32V90.186H306.588z M69.732,170.759c0-9.343,4.991-18.109,13.023-22.879l43.279-25.7h185.841
			l43.279,25.7c8.032,4.769,13.023,13.536,13.023,22.879v7.595H69.732V170.759z M177.13,236.348
			c-5.077-5.126-8.739-11.185-11.158-16.052c7.202,0.263,17.136,1.331,25.986,4.753c7.983,3.087,13.747,12.532,16.974,21.453
			C196.618,248.823,186.17,245.475,177.13,236.348z M278.943,369.697c-9.355,12.799-22.695,22.353-38.58,27.628
			c-1.9,0.631-7.335-0.334-11.304-1.038c-4.188-0.743-8.518-1.511-12.606-1.511c-4.534,0-9.168,0.848-13.256,1.596
			c-3.84,0.702-8.62,1.573-10.4,0.988c-15.907-5.262-29.269-14.809-38.64-27.609c-8.302-11.338-13.38-25.185-14.303-38.991
			c-1.448-21.695,7.095-39.767,22.296-47.161c8.199-3.989,15.979-5.958,23.608-5.958c2.087,0,4.163,0.147,6.232,0.441
			c2.481,0.352,5.077,0.989,7.824,1.661c3.322,0.815,6.728,1.642,10.287,2.071c1.02,0.564,2.189,0.892,3.435,0.906
			c0.029,0.001,0.058,0.001,0.087,0.001c1.049,0,2.045-0.227,2.947-0.628c5.493-0.174,10.762-1.309,15.869-2.385
			c3.003-0.633,5.839-1.231,8.627-1.626c9.638-1.368,19.401,0.437,29.843,5.517c15.189,7.389,23.733,25.445,22.299,47.121
			C292.296,344.516,287.229,358.359,278.943,369.697z M419.914,475.072c-14.88,14.881-34.421,22.322-53.969,22.32
			c-17.354-0.002-34.704-5.883-48.792-17.615l66.433-66.432c2.845-2.846,2.845-7.459,0-10.305c-2.845-2.843-7.458-2.845-10.305,0
			l-66.4,66.399c-24.548-29.951-22.852-74.358,5.097-102.305c14.879-14.88,34.424-22.32,53.969-22.32
			c17.167,0,34.332,5.744,48.337,17.223L397.57,378.75c-2.846,2.845-2.846,7.459-0.001,10.305c1.423,1.423,3.287,2.135,5.153,2.135
			c1.864,0,3.73-0.712,5.152-2.134l16.752-16.752c11.419,13.682,17.645,30.759,17.645,48.798
			C442.27,441.49,434.331,460.657,419.914,475.072z"/>
	</g>
</g>
<g>
</g>
<g>
</g>
<g>
</g>
<g>
</g>
<g>
</g>
<g>
</g>
<g>
</g>
<g>
</g>
<g>
</g>
<g>
</g>
<g>
</g>
<g>
</g>
<g>
</g>
<g>
</g>
<g>
</g>
</svg>
