<?xml version="1.0" encoding="iso-8859-1"?>
<!-- Generator: Adobe Illustrator 19.0.0, SVG Export Plug-In . SVG Version: 6.00 Build 0)  -->
<svg version="1.1" id="Capa_1" xmlns="http://www.w3.org/2000/svg" xmlns:xlink="http://www.w3.org/1999/xlink" x="0px" y="0px"
	 viewBox="0 0 512.001 512.001" style="enable-background:new 0 0 512.001 512.001;" xml:space="preserve">
<g>
	<g>
		<path d="M222.643,327.731h-35.024v-35.024c0-4.146-3.36-7.505-7.506-7.505s-7.505,3.36-7.505,7.505v35.024h-35.024
			c-4.146,0-7.505,3.36-7.505,7.505s3.36,7.505,7.505,7.505h35.024v35.024c0,4.146,3.36,7.505,7.505,7.505
			c4.145,0,7.506-3.36,7.506-7.505v-35.024h35.024c4.146,0,7.505-3.36,7.505-7.505C230.148,331.09,226.788,327.731,222.643,327.731z
			"/>
	</g>
</g>
<g>
	<g>
		<path d="M339.815,137.434c-4.146,0-7.506,3.36-7.506,7.505v12.676c0,4.146,3.36,7.505,7.506,7.505s7.505-3.36,7.505-7.505v-12.676
			C347.321,140.794,343.961,137.434,339.815,137.434z"/>
	</g>
</g>
<g>
	<g>
		<path d="M363.359,137.434c-4.146,0-7.505,3.36-7.505,7.505v12.676c0,4.146,3.36,7.505,7.505,7.505c4.146,0,7.505-3.36,7.505-7.505
			v-12.676C370.865,140.794,367.505,137.434,363.359,137.434z"/>
	</g>
</g>
<g>
	<g>
		<path d="M386.905,137.434c-4.146,0-7.505,3.36-7.505,7.505v12.676c0,4.146,3.36,7.505,7.505,7.505c4.146,0,7.505-3.36,7.505-7.505
			v-12.676C394.411,140.794,391.051,137.434,386.905,137.434z"/>
	</g>
</g>
<g>
	<g>
		<path d="M410.45,137.434c-4.146,0-7.505,3.36-7.505,7.505v12.676c0,4.146,3.36,7.505,7.505,7.505c4.146,0,7.505-3.36,7.505-7.505
			v-12.676C417.956,140.794,414.596,137.434,410.45,137.434z"/>
	</g>
</g>
<g>
	<g>
		<path d="M275.665,183.474l-35.311-20.969v-19.229c4.924-2.083,8.388-6.963,8.388-12.637v-16.296
			c0-7.562-6.152-13.714-13.714-13.714H125.2c-7.562,0-13.714,6.152-13.714,13.714v16.296c0,5.674,3.463,10.554,8.387,12.637v19.23
			l-35.311,20.969c-11.13,6.609-18.044,18.757-18.044,31.702v262.877c0,18.718,15.229,33.947,33.947,33.947h159.299
			c18.719,0,33.947-15.229,33.947-33.947V215.176C293.71,202.231,286.796,190.084,275.665,183.474z M126.497,115.639h107.234v13.702
			H126.497V115.639z M225.343,144.353v14.918h-90.459v-14.918H225.343z M278.699,478.053c0,10.441-8.495,18.936-18.936,18.936
			H100.464c-10.441,0-18.936-8.495-18.936-18.936v-20.151h197.171V478.053z M278.699,220.563H132.413
			c-4.146,0-7.506,3.36-7.506,7.505s3.36,7.506,7.506,7.506h146.286v207.317H81.528V235.574h15.859c4.146,0,7.506-3.36,7.506-7.506
			s-3.36-7.505-7.506-7.505H81.528v-5.387c0-7.676,4.099-14.877,10.697-18.796l37.214-22.098h101.349l37.213,22.098
			c6.599,3.919,10.698,11.121,10.698,18.796V220.563z"/>
	</g>
</g>
<g>
	<g>
		<path d="M430.137,115.097h-11.62l-2.218-75.736C415.653,17.289,397.849,0,375.767,0c-22.082,0-39.885,17.289-40.531,39.361
			l-2.219,75.736h-11.619c-8.462,0-15.346,6.884-15.346,15.345v41.463c0,8.461,6.884,15.345,15.346,15.345h22.416v260.856
			c0,3.64,0.409,7.285,1.218,10.83l8.432,36.997c2.156,9.46,10.437,16.066,20.14,16.066c9.701,0,17.983-6.606,20.14-16.066
			l8.431-36.998c0.808-3.548,1.219-7.192,1.219-10.829v-24.463c0-4.146-3.36-7.505-7.505-7.505c-4.146,0-7.505,3.36-7.505,7.505
			v24.463c0,2.517-0.283,5.039-0.843,7.495l-8.431,36.997c-0.589,2.585-2.853,4.391-5.504,4.391s-4.915-1.805-5.504-4.391
			l-8.432-36.997c-0.559-2.453-0.842-4.974-0.842-7.495V187.25h29.557v200.701c0,4.146,3.36,7.505,7.505,7.505
			c4.146,0,7.505-3.36,7.505-7.505V187.25h26.744c8.461,0,15.345-6.884,15.345-15.345v-41.463
			C445.483,121.981,438.599,115.097,430.137,115.097z M350.242,39.801c0.407-13.901,11.619-24.79,25.526-24.79
			c13.908,0,25.12,10.889,25.527,24.79l2.205,75.296h-55.463L350.242,39.801z M430.138,172.239h-108.74
			c-0.185,0-0.335-0.15-0.335-0.334v-41.463c0-0.185,0.15-0.334,0.335-0.334h108.739c0.185,0,0.334,0.15,0.334,0.334v41.463h0.001
			C430.471,172.09,430.322,172.239,430.138,172.239z"/>
	</g>
</g>
<g>
</g>
<g>
</g>
<g>
</g>
<g>
</g>
<g>
</g>
<g>
</g>
<g>
</g>
<g>
</g>
<g>
</g>
<g>
</g>
<g>
</g>
<g>
</g>
<g>
</g>
<g>
</g>
<g>
</g>
</svg>
