<?xml version="1.0" encoding="iso-8859-1"?>
<!-- Generator: Adobe Illustrator 19.0.0, SVG Export Plug-In . SVG Version: 6.00 Build 0)  -->
<svg version="1.1" id="Capa_1" xmlns="http://www.w3.org/2000/svg" xmlns:xlink="http://www.w3.org/1999/xlink" x="0px" y="0px"
	 viewBox="0 0 512 512" style="enable-background:new 0 0 512 512;" xml:space="preserve">
<g>
	<g>
		<path d="M366.949,298.397H145.051c-4.14,0-7.497,3.356-7.497,7.497c0.001,4.141,3.357,7.497,7.497,7.497h221.898
			c4.141,0,7.497-3.356,7.497-7.497S371.09,298.397,366.949,298.397z"/>
	</g>
</g>
<g>
	<g>
		<path d="M366.949,347.375h-32.485c-4.141,0-7.497,3.356-7.497,7.497c0,4.141,3.356,7.497,7.497,7.497h32.485
			c4.141,0,7.497-3.356,7.497-7.497C374.445,350.731,371.089,347.375,366.949,347.375z"/>
	</g>
</g>
<g>
	<g>
		<path d="M299.147,347.374H145.051c-4.14,0-7.497,3.356-7.497,7.497c0.001,4.141,3.357,7.497,7.497,7.497h154.096
			c4.141,0,7.497-3.356,7.497-7.497C306.644,350.73,303.288,347.374,299.147,347.374z"/>
	</g>
</g>
<g>
	<g>
		<path d="M491.724,198.536v-9.604c0-10.35-8.42-18.77-18.77-18.77h-3.664v-6.964c0-18.427-14.992-33.419-33.402-33.419
			c-0.742-0.002-74.242-0.17-85.649-0.17c-29.549,0-44.317-44.36-50.49-70.803c-1.164-4.983-5.083-8.755-10.225-9.841
			c-5.279-1.114-10.531,0.817-13.716,5.04c-5.097,6.763-16.386,19.343-41.221,40.873c-8.594,7.451-42.005,31.972-111.328,34.902
			H76.078c-18.428,0-33.419,14.992-33.419,33.419v6.964h-3.614c-10.35,0-18.77,8.42-18.77,18.77v9.604
			C8.753,200.678,0,210.799,0,222.932v175.585c0,35.746,29.082,64.828,64.829,64.828h382.342c35.747,0,64.829-29.082,64.829-64.828
			V222.932C512,210.798,503.246,200.677,491.724,198.536z M35.268,188.932c0-2.082,1.694-3.777,3.777-3.777h54.364
			c4.14,0,7.497-3.356,7.497-7.497s-3.356-7.497-7.497-7.497H57.652v-6.964c0-10.16,8.266-18.426,18.426-18.426h47.338
			c0.104,0,0.209-0.002,0.313-0.007c24.071-1.005,84.017-6.776,120.68-38.559c18.938-16.417,33.204-30.44,41.509-40.783
			c16.027,65.331,43.737,79.179,64.323,79.179c11.389,0,84.873,0.168,85.631,0.17c10.16,0,18.426,8.266,18.426,18.426v6.964H128.725
			c-4.14,0-7.497,3.356-7.497,7.497s3.356,7.497,7.497,7.497h344.229c2.082,0,3.777,1.695,3.777,3.777v9.179H35.268V188.932z
			 M497.007,398.517c0,27.48-22.357,49.835-49.836,49.835H64.829c-27.48,0-49.836-22.356-49.836-49.835V222.932
			c0-5.419,4.409-9.827,9.827-9.827h462.359c5.418,0,9.828,4.408,9.828,9.827V398.517z"/>
	</g>
</g>
<g>
	<g>
		<path d="M415.549,251.24H96.451c-7.039,0-12.766,5.727-12.766,12.766V403.09c0,7.039,5.726,12.766,12.766,12.766H415.55
			c7.039,0,12.766-5.727,12.766-12.766V264.006C428.315,256.967,422.588,251.24,415.549,251.24z M413.322,400.862H98.678V266.233
			h314.644V400.862z"/>
	</g>
</g>
<g>
</g>
<g>
</g>
<g>
</g>
<g>
</g>
<g>
</g>
<g>
</g>
<g>
</g>
<g>
</g>
<g>
</g>
<g>
</g>
<g>
</g>
<g>
</g>
<g>
</g>
<g>
</g>
<g>
</g>
</svg>
