<?xml version="1.0" encoding="iso-8859-1"?>
<!-- Generator: Adobe Illustrator 19.0.0, SVG Export Plug-In . SVG Version: 6.00 Build 0)  -->
<svg version="1.1" id="Capa_1" xmlns="http://www.w3.org/2000/svg" xmlns:xlink="http://www.w3.org/1999/xlink" x="0px" y="0px"
	 viewBox="0 0 512 512" style="enable-background:new 0 0 512 512;" xml:space="preserve">
<g>
	<g>
		<path d="M498.813,433.314H484.32V162.319h4.7c12.671,0,22.98-10.309,22.98-22.98c0-12.671-10.309-22.98-22.98-22.98h-42.46V71.901
			c9.045-1.141,16.068-8.865,16.068-18.215V38.214c0-10.133-8.243-18.376-18.376-18.376h-89.726
			c-10.132,0-18.375,8.243-18.375,18.376v15.471c0,9.35,7.023,17.075,16.068,18.215v44.46h-49.048v-44.46
			c9.045-1.141,16.068-8.865,16.068-18.215V38.214c0-10.133-8.243-18.376-18.376-18.376h-89.726
			c-10.133,0-18.376,8.243-18.376,18.376v15.471c0,9.35,7.023,17.074,16.068,18.215v44.46h-49.048v-44.46
			c9.045-1.14,16.068-8.865,16.068-18.215V38.214c0-10.133-8.243-18.376-18.375-18.376H67.748c-10.133,0-18.376,8.243-18.376,18.376
			v15.471c0,9.35,7.023,17.074,16.068,18.215v44.46H22.98C10.309,116.36,0,126.668,0,139.34s10.309,22.98,22.98,22.98h4.7v270.994
			H13.187C5.916,433.314,0,439.23,0,446.503v32.471c0,7.272,5.916,13.188,13.187,13.188h485.625c7.272,0,13.187-5.917,13.187-13.188
			v-32.471C512,439.23,506.084,433.314,498.813,433.314z M351.145,53.685V38.214c0-1.865,1.517-3.382,3.381-3.382h89.726
			c1.865,0,3.382,1.517,3.382,3.382v15.471c0,1.865-1.517,3.382-3.382,3.382h-5.189h-79.346h-5.19
			C352.662,57.068,351.145,55.55,351.145,53.685z M431.565,72.061v44.299h-64.352V72.061H431.565z M207.755,53.685V38.214
			c0-1.865,1.517-3.382,3.382-3.382h89.726c1.865,0,3.382,1.517,3.382,3.382v15.471c0,1.865-1.517,3.382-3.382,3.382h-5.189h-79.347
			h-5.189C209.272,57.068,207.755,55.55,207.755,53.685z M288.176,72.061v44.299h-64.353V72.061H288.176z M64.367,53.685V38.214
			c0-1.865,1.517-3.382,3.382-3.382h89.726c1.864,0,3.381,1.517,3.381,3.382v15.471c0,1.865-1.517,3.382-3.381,3.382h-5.19H72.938
			h-5.189C65.884,57.068,64.367,55.55,64.367,53.685z M144.787,72.061v44.299H80.435V72.061H144.787z M22.98,147.326
			c-4.403,0-7.985-3.583-7.985-7.985c0-4.402,3.583-7.985,7.985-7.985h466.04v-0.001c4.403,0,7.985,3.583,7.985,7.985
			c0,4.402-3.583,7.985-7.985,7.985v0.001H22.98z M367.213,226.576v-64.257h64.352v64.257H367.213z M431.565,241.571v112.12
			c0,17.742-14.434,32.176-32.176,32.176c-17.741,0-32.175-14.434-32.175-32.176v-112.12H431.565z M223.824,226.576v-64.257h64.353
			v64.257H223.824z M288.176,241.571v112.12c0,17.742-14.434,32.176-32.176,32.176s-32.176-14.434-32.176-32.176v-112.12H288.176z
			 M144.787,162.319v64.257H80.435v-64.257H144.787z M497.007,477.167L497.007,477.167H14.994v-28.859H388.2
			c4.141,0,7.497-3.356,7.497-7.497c0-4.141-3.356-7.497-7.497-7.497H42.674V162.319H65.44v95.93c0,4.141,3.356,7.497,7.497,7.497
			s7.497-3.356,7.497-7.497v-16.678h64.352v112.12c0,17.742-14.434,32.176-32.176,32.176c-17.741,0-32.175-14.434-32.175-32.176
			v-59.955c0-4.141-3.356-7.497-7.497-7.497c-4.141,0-7.497,3.356-7.497,7.497v59.955c0,26.01,21.161,47.171,47.171,47.171
			s47.17-21.161,47.17-47.171V162.319h49.048v191.372c0,26.01,21.161,47.171,47.171,47.171c26.01,0,47.171-21.161,47.171-47.171
			V162.319h49.048v191.372c0,26.01,21.161,47.171,47.171,47.171c26.01,0,47.17-21.161,47.17-47.171V162.319h22.766v270.994h-45.971
			c-4.141,0-7.497,3.356-7.497,7.497c0,4.141,3.356,7.497,7.497,7.497h73.651V477.167z"/>
	</g>
</g>
<g>
</g>
<g>
</g>
<g>
</g>
<g>
</g>
<g>
</g>
<g>
</g>
<g>
</g>
<g>
</g>
<g>
</g>
<g>
</g>
<g>
</g>
<g>
</g>
<g>
</g>
<g>
</g>
<g>
</g>
</svg>
