<?xml version="1.0" encoding="iso-8859-1"?>
<!-- Generator: Adobe Illustrator 19.0.0, SVG Export Plug-In . SVG Version: 6.00 Build 0)  -->
<svg version="1.1" id="Capa_1" xmlns="http://www.w3.org/2000/svg" xmlns:xlink="http://www.w3.org/1999/xlink" x="0px" y="0px"
	 viewBox="0 0 512 512" style="enable-background:new 0 0 512 512;" xml:space="preserve">
<g>
	<g>
		<path d="M221.219,100.529H69.113c-6.494,0-11.927,4.622-13.185,10.75c-0.18,0.875-0.274,1.781-0.274,2.709v138.406
			c0,7.421,6.037,13.458,13.458,13.458h152.107c7.421,0,13.458-6.037,13.458-13.458V113.988
			C234.677,106.567,228.64,100.529,221.219,100.529z M219.648,250.823H70.684v-11.69h148.964V250.823z M219.648,127.249H119.95
			c-4.15,0-7.515,3.364-7.515,7.515s3.364,7.515,7.515,7.515h99.698v81.826H70.684v-81.826h14.198c4.15,0,7.515-3.364,7.515-7.515
			s-3.364-7.515-7.515-7.515H70.684v-11.69h148.964V127.249z"/>
	</g>
</g>
<g>
	<g>
		<path d="M467.295,197.88v-30.554c0-37.568-30.565-68.133-68.133-68.133s-68.133,30.565-68.133,68.133V332.58v121.656
			c0,23.564-19.171,42.735-42.735,42.735h-93.881c-22.675,0-41.272-17.754-42.645-40.088c10.513-1.62,18.588-10.729,18.588-21.689
			v-5.896h8.098c7.309,0,13.256-5.946,13.256-13.255v-19.355c0-6.443-4.622-11.82-10.723-13.006v-12.114
			c44.091-7.889,74.731-35.897,80.608-75.784c0.605-4.107-2.233-7.926-6.339-8.53c-4.102-0.598-7.925,2.234-8.53,6.34
			c-2.96,20.087-13.374,36.752-30.117,48.193c-12.116,8.279-27.07,13.65-43.901,15.863c-0.07,0.007-0.139,0.007-0.209,0.016
			c-5.787,0.756-11.786,1.14-17.83,1.14h-19.006c-1.582,0-3.152-0.029-4.713-0.081c-0.523-0.017-1.042-0.052-1.564-0.075
			c-1.05-0.047-2.099-0.093-3.139-0.163c-0.518-0.035-1.029-0.084-1.545-0.124c-1.067-0.084-2.132-0.17-3.187-0.279
			c-0.396-0.04-0.788-0.09-1.182-0.134c-20.072-2.253-37.838-8.95-51.049-19.432c-17.392-13.8-26.585-33.734-26.585-57.649V91.917
			c0-16.492,5.44-32.846,15.317-46.052c14.441-19.308,37.458-30.836,61.57-30.836h51.16c24.112,0,47.129,11.527,61.57,30.836
			c9.877,13.205,15.317,29.56,15.317,46.051v167.841c0,4.151,3.364,7.515,7.515,7.515c4.151,0,7.515-3.364,7.515-7.515V91.916
			c0-19.715-6.503-39.266-18.311-55.053C227.087,13.781,199.571,0,170.746,0h-51.16C90.761,0,63.245,13.781,45.981,36.863
			C34.172,52.65,27.669,72.202,27.669,91.917v188.952c0,47.661,31.887,81.915,81.675,90.73v12.082
			c-6.101,1.186-10.723,6.564-10.723,13.006v19.355c0,7.309,5.947,13.255,13.256,13.255h8.098v5.896
			c0,10.305,7.141,18.968,16.732,21.315C137.906,487.309,163.324,512,194.414,512h93.881c31.851,0,57.764-25.913,57.764-57.764
			V332.58V167.327c0-29.282,23.822-53.104,53.104-53.104c29.282,0,53.104,23.822,53.104,53.104v30.758
			c-8.504,1.363-15.029,8.73-15.029,17.613v30.507c0,8.882,6.525,16.25,15.029,17.613v24.245c0,4.151,3.364,7.515,7.515,7.515
			s7.515-3.364,7.515-7.515v-24.041c9.463-0.436,17.033-8.249,17.033-17.817v-30.507
			C484.328,206.129,476.758,198.316,467.295,197.88z M124.373,373.437h0.001c3.686,0.26,7.449,0.396,11.29,0.396h19.006
			c1.891,0,3.763-0.036,5.619-0.101c0.146-0.005,0.29-0.016,0.435-0.022c1.755-0.066,3.493-0.16,5.215-0.283
			c0.006,0,0.013,0,0.019-0.001v10.005h-41.585V373.437z M113.65,414.268v-15.807h63.031v15.807H113.65z M141.92,442.11
			c-3.813,0-6.915-3.103-6.915-6.916v-5.896h20.324v5.896c0,3.813-3.102,6.916-6.915,6.916H141.92z M469.299,246.204
			c0,1.561-1.269,2.83-2.83,2.83h-11.374c-1.561,0-2.83-1.269-2.83-2.83v-30.507c0-1.561,1.269-2.83,2.83-2.83h11.374
			c1.561,0,2.83,1.269,2.83,2.83V246.204z"/>
	</g>
</g>
<g>
</g>
<g>
</g>
<g>
</g>
<g>
</g>
<g>
</g>
<g>
</g>
<g>
</g>
<g>
</g>
<g>
</g>
<g>
</g>
<g>
</g>
<g>
</g>
<g>
</g>
<g>
</g>
<g>
</g>
</svg>
