<?xml version="1.0" encoding="iso-8859-1"?>
<!-- Generator: Adobe Illustrator 19.0.0, SVG Export Plug-In . SVG Version: 6.00 Build 0)  -->
<svg version="1.1" id="Capa_1" xmlns="http://www.w3.org/2000/svg" xmlns:xlink="http://www.w3.org/1999/xlink" x="0px" y="0px"
	 viewBox="0 0 512 512" style="enable-background:new 0 0 512 512;" xml:space="preserve">
<g>
	<g>
		<path d="M507.181,82.667L429.333,4.821C426.226,1.713,422.094,0,417.698,0c-4.395,0-8.528,1.713-11.634,4.819l-15.659,15.658
			c-6.415,6.416-6.415,16.855,0,23.271l21.147,21.147L363.346,113.1l-25.113-25.113c-6.694-6.692-17.58-6.692-24.274,0
			L87.92,314.026c-6.692,6.693-6.692,17.581,0,24.274l17.981,17.981l-15.492,15.492c-7.058,7.06-7.058,18.546,0,25.606l6.725,6.725
			L2.229,499.007c-2.972,2.973-2.972,7.792,0,10.765C3.716,511.257,5.664,512,7.611,512c1.947,0,3.896-0.743,5.382-2.229
			l94.904-94.904l6.725,6.725c3.53,3.529,8.165,5.294,12.802,5.294c4.636-0.001,9.274-1.766,12.804-5.295L155.72,406.1
			l17.981,17.981c3.347,3.346,7.742,5.019,12.137,5.019c4.394,0,8.79-1.673,12.136-5.019l182.615-182.615
			c2.972-2.973,2.972-7.792,0-10.765c-2.973-2.971-7.792-2.971-10.765,0l-64.277,64.277l-88.525-88.525l12.369-12.369l13.472,13.472
			c1.487,1.486,3.435,2.229,5.382,2.229s3.896-0.743,5.382-2.229c2.972-2.973,2.972-7.792,0-10.765l-13.472-13.472l36.01-36.01
			l22.207,22.206c1.486,1.486,3.434,2.229,5.381,2.229s3.896-0.743,5.382-2.23c2.972-2.972,2.972-7.792-0.001-10.764l-22.206-22.205
			l37.794-37.794c0.755-0.755,1.989-0.757,2.744,0l85.781,85.781c0.757,0.756,0.757,1.988,0,2.744l-18.144,18.144
			c-2.972,2.973-2.972,7.792,0,10.765c2.973,2.971,7.792,2.971,10.765,0l18.144-18.144c6.692-6.693,6.692-17.581,0-24.274
			L398.9,148.654l48.206-48.206l21.147,21.147c3.208,3.207,7.422,4.812,11.635,4.812c4.214,0,8.428-1.604,11.636-4.813
			l15.656-15.658c3.108-3.107,4.82-7.24,4.82-11.635C512,89.906,510.288,85.774,507.181,82.667z M129.465,410.827
			c-1.126,1.124-2.954,1.124-4.078,0l-24.214-24.214c-1.125-1.124-1.124-2.953-0.001-4.077l15.492-15.492l28.292,28.292
			L129.465,410.827z M294.783,305.743L187.209,413.316c-0.755,0.759-1.989,0.757-2.744,0l-85.781-85.781
			c-0.757-0.756-0.757-1.988,0-2.744l37.16-37.16l13.473,13.472c1.486,1.486,3.434,2.229,5.381,2.229
			c1.947,0,3.896-0.743,5.382-2.23c2.972-2.972,2.972-7.792-0.001-10.764l-13.472-13.471l36.01-36.01l22.205,22.205
			c1.487,1.486,3.435,2.229,5.382,2.229s3.896-0.743,5.382-2.229c2.972-2.973,2.972-7.792,0-10.765l-22.205-22.205l12.875-12.875
			L294.783,305.743z M388.135,137.889l-14.025-14.025l48.206-48.205l14.024,14.024L388.135,137.889z M496.416,95.173l-15.658,15.658
			c-0.479,0.482-1.261,0.482-1.741,0L401.17,32.983c-0.481-0.48-0.481-1.262-0.001-1.741l15.659-15.658
			c0.298-0.298,0.637-0.361,0.87-0.361c0.233,0,0.572,0.062,0.87,0.362l77.848,77.847c0.298,0.298,0.361,0.637,0.361,0.87
			C496.777,94.535,496.715,94.874,496.416,95.173z"/>
	</g>
</g>
<g>
</g>
<g>
</g>
<g>
</g>
<g>
</g>
<g>
</g>
<g>
</g>
<g>
</g>
<g>
</g>
<g>
</g>
<g>
</g>
<g>
</g>
<g>
</g>
<g>
</g>
<g>
</g>
<g>
</g>
</svg>
