<?xml version="1.0" encoding="iso-8859-1"?>
<!-- Generator: Adobe Illustrator 19.0.0, SVG Export Plug-In . SVG Version: 6.00 Build 0)  -->
<svg version="1.1" id="Capa_1" xmlns="http://www.w3.org/2000/svg" xmlns:xlink="http://www.w3.org/1999/xlink" x="0px" y="0px"
	 viewBox="0 0 512 512" style="enable-background:new 0 0 512 512;" xml:space="preserve">
<g>
	<g>
		<path d="M255.999,117.345c-4.142,0-7.499,3.357-7.499,7.499v342.713c0,4.142,3.357,7.499,7.499,7.499
			c4.142,0,7.499-3.357,7.499-7.499V124.844C263.498,120.702,260.141,117.345,255.999,117.345z"/>
	</g>
</g>
<g>
	<g>
		<path d="M255.999,45.365c-4.142,0-7.499,3.357-7.499,7.499V89.68c0,4.143,3.357,7.5,7.499,7.5c4.142,0,7.499-3.357,7.499-7.499
			V52.864C263.498,48.722,260.141,45.365,255.999,45.365z"/>
	</g>
</g>
<g>
	<g>
		<path d="M413.207,0H280.988c-8.163,0-14.811,6.608-14.877,14.757h-16C250.045,6.609,243.397,0,235.234,0H98.791
			c-18.075,0-32.78,14.705-32.78,32.78v363.709c0,4.142,3.357,7.499,7.499,7.499c4.142,0,7.499-3.357,7.499-7.499V32.78
			c0-9.804,7.977-17.781,17.781-17.781h136.323c0.065,8.148,6.713,14.757,14.877,14.757h16.241c8.163,0,14.811-6.608,14.878-14.757
			h132.098c9.804,0,17.781,7.977,17.781,17.781v446.44c0,9.804-7.977,17.781-17.781,17.781H281.109
			c-0.066-8.148-6.714-14.757-14.878-14.757H249.99c-8.163,0-14.811,6.608-14.877,14.757H98.791
			c-9.804,0-17.781-7.977-17.781-17.781v-47.484c0-4.142-3.357-7.499-7.499-7.499c-4.142,0-7.499,3.357-7.499,7.499v47.484
			c0,18.075,14.705,32.78,32.78,32.78h136.443c8.163,0,14.811-6.608,14.878-14.757h16c0.065,8.148,6.713,14.757,14.877,14.757
			h132.219c18.075,0,32.78-14.705,32.78-32.78V32.78C445.987,14.705,431.282,0,413.207,0z"/>
	</g>
</g>
<g>
	<g>
		<path d="M401.298,122.746L337.322,58.77c-12.858-12.856-33.779-12.856-46.637,0c-12.857,12.858-12.857,33.779,0,46.637
			l63.977,63.976c6.429,6.428,14.874,9.643,23.318,9.643c8.444,0,16.889-3.215,23.318-9.643
			C414.155,156.525,414.155,135.604,401.298,122.746z M301.291,94.8c-7.01-7.009-7.01-18.415,0-25.424
			c3.505-3.506,8.108-5.257,12.712-5.257s9.207,1.752,12.712,5.257l26.686,26.685l-25.424,25.424L301.291,94.8z M390.692,158.777
			c-7.009,7.011-18.415,7.011-25.424,0l-26.686-26.686l25.424-25.423l26.686,26.685c1.049,1.049,1.922,2.206,2.658,3.423
			C397.525,143.688,396.652,152.817,390.692,158.777z"/>
	</g>
</g>
<g>
	<g>
		<path d="M401.298,264.67l-63.977-63.977c-12.858-12.856-33.779-12.856-46.637,0c-12.857,12.858-12.857,33.778,0.001,46.637
			l63.977,63.977c6.429,6.428,14.874,9.643,23.318,9.643c8.444,0,16.889-3.215,23.318-9.643
			C414.155,298.449,414.155,277.528,401.298,264.67z M301.291,236.723c-7.01-7.009-7.01-18.414,0-25.424
			c3.505-3.506,8.108-5.257,12.712-5.257s9.207,1.752,12.712,5.257l26.685,26.685l-25.424,25.424L301.291,236.723z M390.692,300.701
			c-7.009,7.011-18.415,7.011-25.424,0l-26.686-26.686l25.424-25.424l26.686,26.686
			C397.702,282.286,397.702,293.692,390.692,300.701z"/>
	</g>
</g>
<g>
	<g>
		<path d="M401.298,406.593l-63.976-63.976c-12.858-12.856-33.779-12.856-46.637,0c-12.856,12.857-12.856,33.779,0,46.637
			l63.977,63.976c6.429,6.428,14.874,9.643,23.318,9.643c8.444,0,16.889-3.215,23.318-9.643
			C414.155,440.372,414.155,419.451,401.298,406.593z M301.291,378.648c-7.009-7.01-7.009-18.416,0-25.425
			c3.505-3.506,8.108-5.257,12.712-5.257s9.207,1.752,12.712,5.257l26.685,26.685l-25.424,25.424L301.291,378.648z M393.001,439.792
			c-0.003,0.005-0.006,0.01-0.009,0.015c-0.287,0.435-0.604,0.855-0.933,1.269c-0.05,0.063-0.092,0.13-0.143,0.193
			c-0.381,0.467-0.789,0.919-1.224,1.354s-0.887,0.842-1.353,1.223c-0.07,0.058-0.147,0.106-0.218,0.162
			c-0.406,0.321-0.817,0.632-1.243,0.913c-0.016,0.01-0.033,0.019-0.049,0.029c-5.958,3.905-13.741,3.905-19.699,0
			c-0.016-0.01-0.033-0.019-0.049-0.029c-0.426-0.281-0.837-0.592-1.243-0.913c-0.071-0.056-0.148-0.104-0.218-0.162
			c-0.467-0.381-0.918-0.788-1.353-1.223l-26.686-26.685l25.424-25.423l26.686,26.685c0.435,0.435,0.843,0.887,1.224,1.354
			c0.051,0.062,0.093,0.13,0.143,0.193c0.329,0.414,0.646,0.834,0.933,1.269c0.003,0.005,0.006,0.01,0.009,0.015
			C396.932,426.003,396.932,433.82,393.001,439.792z"/>
	</g>
</g>
<g>
	<g>
		<path d="M221.312,122.746L157.336,58.77c-12.858-12.856-33.779-12.856-46.637,0c-12.857,12.858-12.857,33.779,0,46.637
			l63.977,63.976c6.429,6.428,14.874,9.643,23.318,9.643c8.445,0,16.889-3.215,23.318-9.643
			C234.169,156.525,234.169,135.604,221.312,122.746z M121.306,94.8c-7.01-7.009-7.01-18.415,0-25.424
			c3.505-3.506,8.108-5.257,12.712-5.257s9.207,1.752,12.712,5.257l26.686,26.685l-25.424,25.424L121.306,94.8z M210.707,158.777
			c-7.009,7.011-18.415,7.011-25.424,0l-26.686-26.686l25.424-25.423l26.686,26.685c1.049,1.049,1.922,2.206,2.658,3.423
			C217.54,143.688,216.667,152.817,210.707,158.777z"/>
	</g>
</g>
<g>
	<g>
		<path d="M221.312,264.67l-63.977-63.977c-12.858-12.856-33.779-12.856-46.637,0c-12.856,12.858-12.856,33.778,0.001,46.637
			l63.977,63.977c6.429,6.428,14.874,9.643,23.318,9.643c8.445,0,16.889-3.215,23.318-9.643
			C234.169,298.449,234.169,277.528,221.312,264.67z M121.306,236.723c-7.01-7.009-7.01-18.414,0-25.424
			c3.505-3.506,8.108-5.257,12.712-5.257s9.207,1.752,12.712,5.257l26.685,26.685l-25.424,25.424L121.306,236.723z M210.707,300.701
			c-7.009,7.011-18.415,7.011-25.424,0l-26.686-26.686l25.424-25.424l26.686,26.686
			C217.717,282.286,217.717,293.692,210.707,300.701z"/>
	</g>
</g>
<g>
	<g>
		<path d="M221.312,406.593l-63.976-63.976c-12.858-12.856-33.779-12.856-46.637,0c-12.856,12.857-12.856,33.779,0,46.637
			l63.977,63.976c6.429,6.428,14.874,9.643,23.318,9.643c8.445,0,16.889-3.215,23.318-9.643
			C234.169,440.372,234.169,419.451,221.312,406.593z M121.306,378.648c-7.009-7.01-7.009-18.416,0-25.425
			c3.505-3.506,8.108-5.257,12.712-5.257s9.207,1.752,12.712,5.257l26.685,26.685l-25.424,25.424L121.306,378.648z M213.015,439.792
			c-0.003,0.005-0.006,0.01-0.009,0.015c-0.287,0.435-0.604,0.855-0.933,1.269c-0.05,0.063-0.092,0.13-0.143,0.193
			c-0.381,0.467-0.789,0.919-1.224,1.354s-0.887,0.842-1.353,1.223c-0.07,0.058-0.147,0.106-0.218,0.162
			c-0.406,0.321-0.817,0.632-1.243,0.913c-0.016,0.01-0.033,0.019-0.049,0.029c-5.958,3.905-13.741,3.905-19.699,0
			c-0.016-0.01-0.033-0.019-0.049-0.029c-0.426-0.281-0.837-0.592-1.243-0.913c-0.071-0.056-0.148-0.104-0.218-0.162
			c-0.467-0.381-0.918-0.788-1.353-1.223l-26.686-26.685l25.424-25.423l26.686,26.685c0.435,0.435,0.843,0.887,1.224,1.354
			c0.051,0.062,0.093,0.13,0.143,0.193c0.329,0.414,0.646,0.834,0.933,1.269c0.003,0.005,0.006,0.01,0.009,0.015
			C216.946,426.003,216.946,433.82,213.015,439.792z"/>
	</g>
</g>
<g>
</g>
<g>
</g>
<g>
</g>
<g>
</g>
<g>
</g>
<g>
</g>
<g>
</g>
<g>
</g>
<g>
</g>
<g>
</g>
<g>
</g>
<g>
</g>
<g>
</g>
<g>
</g>
<g>
</g>
</svg>
