<?xml version="1.0" encoding="iso-8859-1"?>
<!-- Generator: Adobe Illustrator 19.0.0, SVG Export Plug-In . SVG Version: 6.00 Build 0)  -->
<svg version="1.1" id="Capa_1" xmlns="http://www.w3.org/2000/svg" xmlns:xlink="http://www.w3.org/1999/xlink" x="0px" y="0px"
	 viewBox="0 0 512 512" style="enable-background:new 0 0 512 512;" xml:space="preserve">
<g>
	<g>
		<path d="M153.415,27.209c-4.145,0-7.506,3.36-7.506,7.506v14.2c0,4.146,3.361,7.506,7.506,7.506c4.145,0,7.506-3.36,7.506-7.506
			v-14.2C160.922,30.569,157.562,27.209,153.415,27.209z"/>
	</g>
</g>
<g>
	<g>
		<path d="M190.928,27.209c-4.145,0-7.506,3.36-7.506,7.506v14.2c0,4.146,3.361,7.506,7.506,7.506c4.145,0,7.506-3.36,7.506-7.506
			v-14.2C198.435,30.569,195.075,27.209,190.928,27.209z"/>
	</g>
</g>
<g>
	<g>
		<path d="M228.441,27.209c-4.145,0-7.506,3.36-7.506,7.506v14.2c0,4.146,3.361,7.506,7.506,7.506c4.145,0,7.506-3.36,7.506-7.506
			v-14.2C235.948,30.569,232.586,27.209,228.441,27.209z"/>
	</g>
</g>
<g>
	<g>
		<path d="M265.953,27.209c-4.146,0-7.506,3.36-7.506,7.506v14.2c0,4.146,3.36,7.506,7.506,7.506s7.506-3.36,7.506-7.506v-14.2
			C273.46,30.569,270.099,27.209,265.953,27.209z"/>
	</g>
</g>
<g>
	<g>
		<path d="M303.466,27.209c-4.146,0-7.506,3.36-7.506,7.506v14.2c0,4.146,3.36,7.506,7.506,7.506s7.506-3.36,7.506-7.506v-14.2
			C310.972,30.569,307.612,27.209,303.466,27.209z"/>
	</g>
</g>
<g>
	<g>
		<path d="M216.594,246.114h-16.18v-16.18c0-4.146-3.361-7.506-7.506-7.506s-7.506,3.36-7.506,7.506v16.18h-16.18
			c-4.145,0-7.506,3.36-7.506,7.506s3.361,7.506,7.506,7.506h16.18v16.179c0,4.146,3.361,7.506,7.506,7.506s7.506-3.36,7.506-7.506
			v-16.179h16.18c4.145,0,7.506-3.36,7.506-7.506C224.1,249.474,220.74,246.114,216.594,246.114z"/>
	</g>
</g>
<g>
	<g>
		<path d="M376.971,356.579c-17.197-17.196-40.059-26.665-64.378-26.665c-24.319,0-47.181,9.47-64.377,26.665
			c-17.196,17.197-26.666,40.059-26.666,64.378c0,24.319,9.471,47.181,26.666,64.378C265.412,502.53,288.276,512,312.594,512
			s47.181-9.47,64.378-26.665c17.196-17.197,26.665-40.059,26.665-64.378C403.636,396.638,394.167,373.776,376.971,356.579z
			 M236.563,420.957c0-20.309,7.909-39.401,22.269-53.762c14.361-14.36,33.453-22.269,53.762-22.269
			c17.785,0,34.637,6.066,48.196,17.219L253.782,469.153C242.63,455.595,236.563,438.743,236.563,420.957z M366.356,474.719
			c-14.36,14.36-33.453,22.269-53.762,22.269c-17.785,0-34.637-6.066-48.196-17.219l107.008-107.008
			c11.152,13.558,17.219,30.411,17.219,48.196C388.625,441.266,380.716,460.358,366.356,474.719z"/>
	</g>
</g>
<g>
	<g>
		<path d="M331.752,0h-206.62c-9.246,0-16.768,7.522-16.768,16.768v47.807c0,9.246,7.522,16.768,16.768,16.768l0.276,410.905
			c0,10.892,8.861,19.752,19.754,19.752c0,0,50.814-0.014,99.195-0.014c4.145,0,7.506-3.36,7.506-7.506
			c-0.001-4.146-3.361-7.506-7.507-7.506c-48.383,0-99.198,0.014-99.197,0.014c-2.613,0-4.74-2.127-4.74-4.74V333.953h106.808
			c8.855,0,16.06-7.204,16.06-16.06V190.511c0-8.856-7.205-16.061-16.06-16.061H140.419V81.343h176.044v221.654
			c0,4.146,3.36,7.506,7.506,7.506c4.146,0,7.506-3.36,7.506-7.506V81.343h0.276c9.246,0,16.768-7.522,16.768-16.768V16.768
			C348.518,7.522,340.997,0,331.752,0z M247.227,189.462c0.578,0,1.048,0.47,1.048,1.049v127.382c0,0.578-0.47,1.048-1.048,1.048
			H140.419V189.462H247.227z M333.505,64.575c0,0.968-0.788,1.755-1.755,1.755H125.131c-0.968,0-1.755-0.788-1.755-1.755V16.768
			c0-0.968,0.787-1.755,1.755-1.755H331.75c0.968,0,1.755,0.788,1.755,1.755V64.575z"/>
	</g>
</g>
<g>
</g>
<g>
</g>
<g>
</g>
<g>
</g>
<g>
</g>
<g>
</g>
<g>
</g>
<g>
</g>
<g>
</g>
<g>
</g>
<g>
</g>
<g>
</g>
<g>
</g>
<g>
</g>
<g>
</g>
</svg>
