<?xml version="1.0" encoding="iso-8859-1"?>
<!-- Generator: Adobe Illustrator 19.0.0, SVG Export Plug-In . SVG Version: 6.00 Build 0)  -->
<svg version="1.1" id="Capa_1" xmlns="http://www.w3.org/2000/svg" xmlns:xlink="http://www.w3.org/1999/xlink" x="0px" y="0px"
	 viewBox="0 0 512.002 512.002" style="enable-background:new 0 0 512.002 512.002;" xml:space="preserve">
<g>
	<g>
		<path d="M142.371,205.929l-25.935-24.539l6.408-6.046c7.202-6.793,10.866-16.726,9.802-26.57L118.83,21.018
			C117.535,9.036,107.469,0,95.417,0S73.299,9.036,72.003,21.018L58.187,148.775c-1.064,9.843,2.6,19.776,9.802,26.568l6.334,5.977
			l-26.586,24.514c-6.9,6.363-10.857,15.395-10.857,24.781v69.748c0,4.145,3.36,7.505,7.505,7.505c4.145,0,7.505-3.36,7.505-7.505
			v-19.141h86.012v141.202H51.89v-87.371c0-4.145-3.36-7.505-7.505-7.505c-4.145,0-7.505,3.36-7.505,7.505v148.903
			C36.88,499.419,49.461,512,64.926,512h59.94c15.464,0,28.046-12.581,28.046-28.046V230.415
			C152.912,221.192,149.07,212.267,142.371,205.929z M137.902,483.954c0,7.188-5.848,13.036-13.036,13.036h-59.94
			c-7.188,0-13.036-5.848-13.036-13.036v-46.522h86.012V483.954z M137.903,266.211L137.903,266.211H51.89v-35.596
			c0-5.207,2.195-10.217,6.022-13.746l27.12-25.008c2.911-2.684,4.593-6.494,4.616-10.453c0.022-3.96-1.616-7.789-4.497-10.507
			l-6.863-6.476c-3.805-3.588-5.741-8.836-5.179-14.036L86.926,22.632c0.47-4.346,4.12-7.622,8.491-7.622
			c4.371,0,8.021,3.277,8.491,7.622l13.816,127.756c0.562,5.201-1.373,10.448-5.178,14.037l-6.931,6.538
			c-2.855,2.693-4.495,6.489-4.498,10.413c-0.003,3.924,1.63,7.723,4.481,10.422l26.458,25.034
			c3.715,3.515,5.847,8.465,5.847,13.582V266.211z"/>
	</g>
</g>
<g>
	<g>
		<path d="M303.143,205.929l-25.935-24.539l6.408-6.046c7.202-6.793,10.866-16.726,9.802-26.57L279.602,21.018
			C278.306,9.036,268.24,0,256.188,0s-22.118,9.036-23.414,21.018l-13.816,127.756c-1.065,9.844,2.6,19.777,9.801,26.57l6.335,5.976
			l-26.586,24.514c-6.9,6.364-10.857,15.396-10.857,24.781v253.34c0,15.464,12.581,28.046,28.046,28.046h59.941
			c15.464,0,28.046-12.581,28.046-28.046v-253.54C313.684,221.192,309.841,212.267,303.143,205.929z M212.661,230.615
			c0-5.206,2.195-10.217,6.022-13.746l27.121-25.008c2.911-2.684,4.593-6.494,4.615-10.454c0.022-3.96-1.616-7.789-4.497-10.507
			l-6.864-6.475c-3.805-3.588-5.741-8.836-5.178-14.036l13.816-127.756c0.47-4.346,4.12-7.622,8.491-7.622s8.021,3.277,8.491,7.622
			l13.816,127.756c0.562,5.201-1.373,10.448-5.178,14.037l-6.932,6.538c-2.855,2.693-4.494,6.489-4.497,10.413
			c-0.003,3.925,1.63,7.723,4.481,10.422l26.458,25.034c3.716,3.516,5.847,8.466,5.847,13.582v35.796h-86.012V230.615z
			 M276.687,181.88c-0.001,0.001-0.002,0.002-0.002,0.003v-0.001L276.687,181.88z M285.638,496.99h-59.941
			c-7.188,0-13.036-5.848-13.036-13.036v-46.522h86.013v46.522h0C298.674,491.142,292.826,496.99,285.638,496.99z M298.674,422.423
			h-86.013V281.221h86.013V422.423z"/>
	</g>
</g>
<g>
	<g>
		<path d="M464.581,205.929l-25.935-24.539l6.408-6.046c7.202-6.793,10.866-16.726,9.802-26.57L441.041,21.018
			C439.745,9.036,429.679,0,417.627,0s-22.118,9.036-23.414,21.018l-13.816,127.757c-1.064,9.843,2.6,19.776,9.802,26.568
			l6.334,5.977l-26.586,24.514c-6.9,6.363-10.857,15.395-10.857,24.781v137.084c0,4.145,3.36,7.505,7.505,7.505
			s7.505-3.36,7.505-7.505v-86.477h86.012v141.202H374.1v-19.827c0-4.145-3.36-7.505-7.505-7.505s-7.505,3.36-7.505,7.505v81.359
			c0,15.464,12.581,28.046,28.046,28.046h59.94c15.464,0,28.046-12.581,28.046-28.046V230.415
			C475.122,221.192,471.28,212.267,464.581,205.929z M447.076,496.99h-59.94c-7.188,0-13.036-5.848-13.036-13.036v-46.522h86.012
			v46.522h0C460.112,491.142,454.264,496.99,447.076,496.99z M460.112,266.211H374.1v-35.596c0-5.207,2.195-10.217,6.022-13.746
			l27.12-25.008c2.911-2.684,4.593-6.494,4.616-10.453c0.022-3.96-1.616-7.789-4.497-10.507l-6.863-6.476
			c-3.805-3.588-5.741-8.836-5.179-14.036l13.816-127.756c0.47-4.346,4.12-7.622,8.491-7.622c4.371,0,8.021,3.277,8.491,7.622
			l13.816,127.756c0.562,5.201-1.373,10.448-5.178,14.037l-6.931,6.538c-2.855,2.693-4.495,6.489-4.498,10.413
			c-0.003,3.924,1.63,7.723,4.481,10.422l26.458,25.034c3.715,3.515,5.847,8.465,5.847,13.582V266.211z"/>
	</g>
</g>
<g>
</g>
<g>
</g>
<g>
</g>
<g>
</g>
<g>
</g>
<g>
</g>
<g>
</g>
<g>
</g>
<g>
</g>
<g>
</g>
<g>
</g>
<g>
</g>
<g>
</g>
<g>
</g>
<g>
</g>
</svg>
