<?xml version="1.0" encoding="iso-8859-1"?>
<!-- Generator: Adobe Illustrator 19.0.0, SVG Export Plug-In . SVG Version: 6.00 Build 0)  -->
<svg version="1.1" id="Capa_1" xmlns="http://www.w3.org/2000/svg" xmlns:xlink="http://www.w3.org/1999/xlink" x="0px" y="0px"
	 viewBox="0 0 512 512" style="enable-background:new 0 0 512 512;" xml:space="preserve">
<g>
	<g>
		<path d="M124.983,31.101c-4.084,0-7.394,3.31-7.394,7.394v17.894c0,4.084,3.31,7.394,7.394,7.394c4.084,0,7.394-3.31,7.394-7.394
			V38.495C132.377,34.411,129.067,31.101,124.983,31.101z"/>
	</g>
</g>
<g>
	<g>
		<path d="M170.28,31.101c-4.084,0-7.394,3.31-7.394,7.394v17.894c0,4.084,3.31,7.394,7.394,7.394c4.084,0,7.394-3.31,7.394-7.394
			V38.495C177.674,34.411,174.364,31.101,170.28,31.101z"/>
	</g>
</g>
<g>
	<g>
		<path d="M215.578,31.101c-4.084,0-7.394,3.31-7.394,7.394v17.894c0,4.084,3.31,7.394,7.394,7.394s7.394-3.31,7.394-7.394V38.495
			C222.972,34.411,219.662,31.101,215.578,31.101z"/>
	</g>
</g>
<g>
	<g>
		<path d="M260.874,31.101c-4.084,0-7.394,3.31-7.394,7.394v17.894c0,4.084,3.31,7.394,7.394,7.394s7.394-3.31,7.394-7.394V38.495
			C268.268,34.411,264.958,31.101,260.874,31.101z"/>
	</g>
</g>
<g>
	<g>
		<path d="M306.172,31.101c-4.084,0-7.394,3.31-7.394,7.394v17.894c0,4.084,3.31,7.394,7.394,7.394c4.084,0,7.394-3.31,7.394-7.394
			V38.495C313.566,34.411,310.256,31.101,306.172,31.101z"/>
	</g>
</g>
<g>
	<g>
		<path d="M450.889,276.296c-12.089-12.088-28.16-18.745-45.255-18.745c-5.783,0-11.443,0.779-16.876,2.255v-78.863
			c0-15.202-8.12-29.468-21.192-37.229l-44.048-26.157V94.884h12.621c12.553,0,22.765-10.212,22.765-22.764V22.765
			C358.904,10.212,348.692,0,336.139,0H95.015C82.463,0,72.251,10.212,72.251,22.765V72.12c0,12.552,10.212,22.764,22.765,22.764
			h12.621v22.674l-44.048,26.157c-13.072,7.762-21.192,22.027-21.192,37.229v291.332c0,21.904,17.82,39.724,39.724,39.724h266.912
			c21.904,0,39.724-17.82,39.724-39.724v-43.339l62.132-62.131C475.841,341.853,475.841,301.25,450.889,276.296z M95.015,80.096
			v-0.001c-4.398,0-7.977-3.578-7.977-7.976V22.765c0-4.398,3.579-7.977,7.977-7.977h241.123c4.398,0,7.977,3.578,7.977,7.977V72.12
			c0,4.398-3.579,7.976-7.977,7.976H95.015z M308.73,94.884v19.489H122.425V94.884H308.73z M82.121,497.21v0.002
			c-13.749,0-24.936-11.186-24.936-24.936v-57.81h124.148c15.323,0,27.789-12.466,27.789-27.789V242.209
			c0-15.323-12.466-27.789-27.789-27.789h-63.658c-4.084,0-7.394,3.311-7.394,7.394c0,4.084,3.31,7.394,7.394,7.394h63.658
			c7.169,0,13.001,5.832,13.001,13.001v144.467c0,7.169-5.832,13.001-13.001,13.001H57.185v-170.47h25.984
			c4.084,0,7.394-3.311,7.394-7.394c0-4.084-3.31-7.394-7.394-7.394H57.185v-33.476c0-10.01,5.347-19.403,13.953-24.514
			l45.922-27.269h197.034l45.922,27.269c8.607,5.111,13.953,14.504,13.953,24.514v84.978c-4.91,2.805-9.484,6.268-13.59,10.374
			l-126.45,126.449c-24.952,24.954-24.952,65.556,0,90.509c1.395,1.395,2.848,2.709,4.345,3.957H82.121z M373.969,472.276
			c0,13.75-11.186,24.936-24.936,24.936h-28.938c1.496-1.248,2.95-2.562,4.344-3.957l49.53-49.53V472.276z M440.431,356.349
			l-57.983,57.983l-34.258-34.258c-2.888-2.887-7.569-2.887-10.458,0c-2.887,2.887-2.887,7.569,0,10.457l34.259,34.259
			l-58.009,58.009c-9.295,9.295-21.652,14.414-34.797,14.414c-13.145,0-25.503-5.119-34.798-14.414h0.001
			c-19.187-19.188-19.187-50.408,0-69.596l58.009-58.009l10.443,10.443c1.444,1.444,3.337,2.166,5.229,2.166
			c1.892,0,3.785-0.722,5.229-2.166c2.887-2.887,2.887-7.569,0-10.457l-10.444-10.444l57.983-57.983
			c3.956-3.956,8.47-7.147,13.36-9.517c0.244-0.101,0.481-0.214,0.711-0.34c6.41-2.98,13.446-4.556,20.726-4.556
			c13.145,0,25.503,5.119,34.797,14.414C459.618,305.941,459.618,337.161,440.431,356.349z"/>
	</g>
</g>
<g>
</g>
<g>
</g>
<g>
</g>
<g>
</g>
<g>
</g>
<g>
</g>
<g>
</g>
<g>
</g>
<g>
</g>
<g>
</g>
<g>
</g>
<g>
</g>
<g>
</g>
<g>
</g>
<g>
</g>
</svg>
