<?xml version="1.0" encoding="iso-8859-1"?>
<!-- Generator: Adobe Illustrator 19.0.0, SVG Export Plug-In . SVG Version: 6.00 Build 0)  -->
<svg version="1.1" id="Capa_1" xmlns="http://www.w3.org/2000/svg" xmlns:xlink="http://www.w3.org/1999/xlink" x="0px" y="0px"
	 viewBox="0 0 512 512" style="enable-background:new 0 0 512 512;" xml:space="preserve">
<g>
	<g>
		<path d="M492.17,319.272c-2.724-3.15-6.674-4.956-10.839-4.956H324.13c-4.164,0-8.115,1.806-10.839,4.956
			c-2.724,3.15-3.942,7.32-3.343,11.44l23.217,159.443C334.98,502.609,345.838,512,358.423,512h88.617
			c12.585,0,23.442-9.391,25.256-21.845l23.218-159.443C496.113,326.592,494.895,322.422,492.17,319.272z M476.893,354.121h-90.274
			c-4.156,0-7.526,3.37-7.526,7.526s3.37,7.526,7.526,7.526h88.082L457.4,487.987c-0.744,5.108-5.198,8.961-10.361,8.961h-88.617
			c-5.163,0-9.617-3.853-10.361-8.961L330.76,369.173h20.235c4.156,0,7.526-3.37,7.526-7.526s-3.37-7.526-7.526-7.526h-22.427
			l-3.604-24.753h155.533L476.893,354.121z"/>
	</g>
</g>
<g>
	<g>
		<path d="M274.303,171.533l-60.719-46.554v-16.73c12.009-0.794,21.537-10.811,21.537-23.017V23.074
			C235.121,10.351,224.77,0,212.048,0H94.307C81.583,0,71.233,10.351,71.233,23.074v62.158c0,12.206,9.529,22.223,21.537,23.017
			v16.73l-60.719,46.554c-9.84,7.544-15.714,19.451-15.714,31.849v267.755c0,21.425,17.43,38.855,38.855,38.855h195.969
			c21.425,0,38.855-17.43,38.855-38.855V203.383C290.017,190.984,284.142,179.077,274.303,171.533z M86.285,85.232V23.074
			c0-4.424,3.598-8.022,8.022-8.022h117.741c4.423,0,8.021,3.598,8.021,8.022v62.158c0,4.423-3.598,8.022-8.021,8.022H94.307
			C89.883,93.254,86.285,89.656,86.285,85.232z M198.532,108.306v12.86h-90.71v-12.86H198.532z M251.162,494.941H55.192
			c-13.125,0-23.803-10.678-23.803-23.803V203.383c0-7.748,3.671-15.189,9.821-19.904l61.639-47.26h100.655l61.64,47.26
			c6.149,4.714,9.82,12.155,9.82,19.904v267.755h0.001C274.965,484.263,264.287,494.941,251.162,494.941z"/>
	</g>
</g>
<g>
	<g>
		<path d="M225.617,257.557h-91.204c-4.156,0-7.526,3.37-7.526,7.526s3.37,7.526,7.526,7.526h91.204c0.215,0,0.39,0.175,0.39,0.391
			v107.588c0,0.215-0.175,0.391-0.39,0.391H80.737c-0.215,0-0.391-0.175-0.391-0.391V272.999c0-0.215,0.175-0.391,0.391-0.391
			h18.555c4.156,0,7.526-3.37,7.526-7.526s-3.37-7.526-7.526-7.526H80.737c-8.515,0-15.443,6.927-15.443,15.443v107.588
			c0,8.515,6.927,15.443,15.443,15.443h144.88c8.515,0,15.442-6.927,15.442-15.443V272.999
			C241.059,264.484,234.132,257.557,225.617,257.557z"/>
	</g>
</g>
<g>
</g>
<g>
</g>
<g>
</g>
<g>
</g>
<g>
</g>
<g>
</g>
<g>
</g>
<g>
</g>
<g>
</g>
<g>
</g>
<g>
</g>
<g>
</g>
<g>
</g>
<g>
</g>
<g>
</g>
</svg>
