<?xml version="1.0" encoding="iso-8859-1"?>
<!-- Generator: Adobe Illustrator 19.0.0, SVG Export Plug-In . SVG Version: 6.00 Build 0)  -->
<svg version="1.1" id="Capa_1" xmlns="http://www.w3.org/2000/svg" xmlns:xlink="http://www.w3.org/1999/xlink" x="0px" y="0px"
	 viewBox="0 0 512 512" style="enable-background:new 0 0 512 512;" xml:space="preserve">
<g>
	<g>
		<path d="M138.076,243.566c-1.228-3.943-5.42-6.145-9.36-4.914l-14.015,4.365c-3.942,1.228-6.142,5.419-4.914,9.36
			c0.997,3.202,3.949,5.254,7.135,5.254c0.736,0,1.484-0.109,2.225-0.34l14.015-4.365
			C137.104,251.698,139.304,247.507,138.076,243.566z"/>
	</g>
</g>
<g>
	<g>
		<path d="M242.296,211.106c-1.227-3.942-5.416-6.141-9.36-4.914l-70.811,22.055c-3.942,1.227-6.142,5.418-4.914,9.36
			c0.997,3.202,3.948,5.254,7.134,5.254c0.736,0,1.485-0.109,2.226-0.34l70.811-22.055
			C241.324,219.239,243.524,215.048,242.296,211.106z"/>
	</g>
</g>
<g>
	<g>
		<path d="M246.643,257.185c-1.227-3.942-5.417-6.141-9.36-4.914l-118.235,36.824c-3.942,1.227-6.142,5.418-4.914,9.36
			c0.997,3.202,3.949,5.255,7.135,5.255c0.736,0,1.485-0.109,2.225-0.34l118.235-36.824
			C245.671,265.317,247.871,261.126,246.643,257.185z"/>
	</g>
</g>
<g>
	<g>
		<path d="M201.351,317.769c-1.228-3.942-5.417-6.142-9.36-4.915l-70.505,21.959c-3.942,1.227-6.142,5.418-4.914,9.36
			c0.997,3.202,3.949,5.255,7.135,5.255c0.736,0,1.485-0.109,2.225-0.34l70.505-21.959
			C200.379,325.902,202.579,321.711,201.351,317.769z"/>
	</g>
</g>
<g>
	<g>
		<path d="M249.082,302.903c-1.228-3.942-5.417-6.143-9.361-4.914l-13.716,4.272c-3.942,1.227-6.142,5.418-4.914,9.36
			c0.997,3.202,3.949,5.254,7.135,5.254c0.736,0,1.485-0.109,2.226-0.34l13.716-4.272
			C248.11,311.036,250.31,306.845,249.082,302.903z"/>
	</g>
</g>
<g>
	<g>
		<path d="M431.346,360.512l-129.991-11.156l-12.434-204.821c-0.409-6.744-3.833-12.814-9.394-16.652
			c-2.965-2.047-6.308-3.292-9.761-3.712l-5.949-103.208c-0.347-6.013-3.035-11.506-7.571-15.469
			c-4.536-3.963-10.342-5.884-16.345-5.428L85.104,11.998C73.073,12.925,63.88,23.478,64.61,35.523l8.975,147.835
			c-8.554,3.537-14.003,12.103-13.433,21.494L73.536,425.32c-5.179,0.435-10.084,2.776-13.667,6.582
			c-3.985,4.235-6.068,9.991-5.716,15.795l1.627,26.81C57.056,495.531,74.555,512,95.618,512h333.247
			c16.002,0,29.021-13.019,29.021-29.02v-93.553C457.885,374.241,446.476,361.811,431.346,360.512z M86.252,26.904L241.05,14.973
			c1.969-0.156,3.872,0.48,5.359,1.78c1.487,1.299,2.369,3.101,2.482,5.072l6.05,104.952L88.279,178.683L79.533,34.618
			C79.294,30.668,82.308,27.208,86.252,26.904z M191.584,497.049H95.618c-13.173,0-24.116-10.299-24.914-23.448l-1.627-26.81
			c-0.105-1.731,0.492-3.379,1.68-4.642c1.188-1.263,2.798-1.958,4.532-1.958h101.673c8.063,0,14.622,6.559,14.622,14.622V497.049z
			 M321.654,497.049L321.654,497.049h-115.12v-42.236c0-16.306-13.266-29.573-29.573-29.573H88.509L75.075,203.947
			c-0.193-3.174,1.793-6.051,4.828-6.996l185.168-57.67c2.036-0.633,4.208-0.303,5.963,0.908c1.754,1.211,2.834,3.125,2.963,5.253
			l12.448,205.045c0.438,7.218,6.203,13.128,13.408,13.747l21.801,1.871V497.049z M442.935,482.98c0,7.758-6.312,14.07-14.07,14.07
			h-92.261V367.387l93.464,8.021c7.335,0.629,12.867,6.656,12.867,14.019V482.98z"/>
	</g>
</g>
<g>
</g>
<g>
</g>
<g>
</g>
<g>
</g>
<g>
</g>
<g>
</g>
<g>
</g>
<g>
</g>
<g>
</g>
<g>
</g>
<g>
</g>
<g>
</g>
<g>
</g>
<g>
</g>
<g>
</g>
</svg>
