<?xml version="1.0" encoding="iso-8859-1"?>
<!-- Generator: Adobe Illustrator 19.0.0, SVG Export Plug-In . SVG Version: 6.00 Build 0)  -->
<svg version="1.1" id="Capa_1" xmlns="http://www.w3.org/2000/svg" xmlns:xlink="http://www.w3.org/1999/xlink" x="0px" y="0px"
	 viewBox="0 0 512 512" style="enable-background:new 0 0 512 512;" xml:space="preserve">
<g>
	<g>
		<path d="M295.151,341.18h-31.646v-31.645c0-4.145-3.36-7.505-7.505-7.505c-4.145,0-7.505,3.36-7.505,7.505v31.645h-31.645
			c-4.145,0-7.505,3.36-7.505,7.505c0,4.145,3.36,7.505,7.505,7.505h31.645v31.645c0,4.145,3.36,7.505,7.505,7.505
			c4.145,0,7.505-3.36,7.505-7.505V356.19h31.646c4.145,0,7.505-3.36,7.505-7.505S299.297,341.18,295.151,341.18z"/>
	</g>
</g>
<g>
	<g>
		<path d="M353.661,400.845c4.145,0,7.505-3.36,7.505-7.505V238.164c0-12.126-6.477-23.505-16.903-29.696l-32.214-19.13v-17.066
			c5.133-2.302,8.722-7.451,8.722-13.43v-38.168c0-8.118-6.605-14.722-14.722-14.722h-10.117l-2.025-69.14
			C293.302,16.17,276.651,0,256,0s-37.302,16.17-37.906,36.812l-2.025,69.14h-10.119c-8.118,0-14.722,6.604-14.722,14.722v38.168
			c0,5.98,3.589,11.128,8.722,13.43v17.066l-32.214,19.13c-10.426,6.192-16.903,17.57-16.903,29.696v241.991
			c0,17.559,14.286,31.845,31.845,31.845H329.32c17.559,0,31.845-14.286,31.845-31.845v-51.417c0-4.145-3.36-7.505-7.505-7.505
			s-7.505,3.36-7.505,7.505v18.453H165.844V257.537h14.608c4.145,0,7.505-3.36,7.505-7.505s-3.36-7.505-7.505-7.505h-14.608v-4.363
			c0-6.856,3.662-13.289,9.557-16.79l34.116-20.259h92.968l34.116,20.259c5.894,3.5,9.556,9.934,9.556,16.79v4.363H215.975
			c-4.145,0-7.505,3.36-7.505,7.505s3.36,7.505,7.505,7.505h130.182V393.34C346.158,397.484,349.516,400.845,353.661,400.845z
			 M346.158,462.201v17.954c0,9.283-7.552,16.835-16.835,16.835H182.68c-9.283,0-16.836-7.552-16.836-16.835v-17.954H346.158z
			 M233.097,37.252C233.464,24.78,243.524,15.01,256,15.01c12.478,0,22.537,9.77,22.903,22.242l2.013,68.7h-49.831L233.097,37.252z
			 M214.961,186.106v-12.542h82.079v12.542H214.961z M305.763,158.554h-99.524v-37.593h99.524V158.554z"/>
	</g>
</g>
<g>
</g>
<g>
</g>
<g>
</g>
<g>
</g>
<g>
</g>
<g>
</g>
<g>
</g>
<g>
</g>
<g>
</g>
<g>
</g>
<g>
</g>
<g>
</g>
<g>
</g>
<g>
</g>
<g>
</g>
</svg>
