<?xml version="1.0" encoding="iso-8859-1"?>
<!-- Generator: Adobe Illustrator 19.0.0, SVG Export Plug-In . SVG Version: 6.00 Build 0)  -->
<svg version="1.1" id="Capa_1" xmlns="http://www.w3.org/2000/svg" xmlns:xlink="http://www.w3.org/1999/xlink" x="0px" y="0px"
	 viewBox="0 0 512 512" style="enable-background:new 0 0 512 512;" xml:space="preserve">
<g>
	<g>
		<path d="M228.16,368.423h-16.177v-16.177c0-4.145-3.36-7.505-7.505-7.505c-4.145,0-7.505,3.36-7.505,7.505v16.177h-16.177
			c-4.145,0-7.505,3.36-7.505,7.505s3.36,7.505,7.505,7.505h16.177v16.177c0,4.145,3.36,7.505,7.505,7.505
			c4.145,0,7.505-3.36,7.505-7.505v-16.177h16.177c4.145,0,7.505-3.36,7.505-7.505S232.304,368.423,228.16,368.423z"/>
	</g>
</g>
<g>
	<g>
		<path d="M356.943,441.474c4.145,0,7.505-3.36,7.505-7.505V271.416c0-9.922-5.351-19.147-13.963-24.074l-36.141-20.677v-10.352
			c4.336-2.066,7.347-6.479,7.347-11.594v-29.674c0-7.085-5.764-12.85-12.85-12.85h-17.277L279.384,21.05
			C278.348,9.05,268.484,0,256.439,0c-12.045,0-21.909,9.05-22.945,21.051l-12.18,141.145h-17.278
			c-7.085,0-12.849,5.764-12.849,12.85v29.674c0,5.115,3.011,9.528,7.347,11.594v10.314l-36.839,20.713
			c-8.723,4.906-14.142,14.169-14.142,24.176v214.434c0,14.363,11.686,26.049,26.049,26.049h164.796
			c14.363,0,26.049-11.686,26.049-26.049v-16.626c0-4.145-3.36-7.505-7.505-7.505s-7.505,3.36-7.505,7.505v16.626
			c0,6.087-4.952,11.039-11.039,11.039H173.601c-6.087,0-11.039-4.952-11.039-11.039v-25.298h83.097
			c9.84,0,17.845-8.005,17.845-17.845V363.34c0-4.145-3.36-7.505-7.505-7.505c-4.145,0-7.505,3.36-7.505,7.505v79.468
			c0,1.564-1.272,2.835-2.835,2.835h-83.097V310.556h83.097c1.564,0,2.835,1.272,2.835,2.835v14.426c0,4.145,3.36,7.505,7.505,7.505
			c4.145,0,7.505-3.36,7.505-7.505v-14.426c0-9.84-8.005-17.845-17.845-17.845h-83.097v-24.029c0-4.592,2.486-8.842,6.489-11.093
			l38.953-21.901h96.839l38.188,21.848c3.952,2.26,6.406,6.492,6.406,11.045v162.553
			C349.438,438.114,352.798,441.474,356.943,441.474z M248.447,22.341c0.361-4.179,3.796-7.331,7.991-7.331
			c4.195,0,7.63,3.152,7.991,7.331l12.068,139.855h-40.119L248.447,22.341z M299.333,223.513h-85.789v-5.944h85.789V223.513z
			 M306.68,202.559H206.197v-25.353H306.68V202.559z"/>
	</g>
</g>
<g>
</g>
<g>
</g>
<g>
</g>
<g>
</g>
<g>
</g>
<g>
</g>
<g>
</g>
<g>
</g>
<g>
</g>
<g>
</g>
<g>
</g>
<g>
</g>
<g>
</g>
<g>
</g>
<g>
</g>
</svg>
