<?xml version="1.0" encoding="iso-8859-1"?>
<!-- Generator: Adobe Illustrator 19.0.0, SVG Export Plug-In . SVG Version: 6.00 Build 0)  -->
<svg version="1.1" id="Capa_1" xmlns="http://www.w3.org/2000/svg" xmlns:xlink="http://www.w3.org/1999/xlink" x="0px" y="0px"
	 viewBox="0 0 512 512" style="enable-background:new 0 0 512 512;" xml:space="preserve">
<g>
	<g>
		<path d="M472.567,367.29C472.567,367.29,472.566,367.29,472.567,367.29c-92.704-49.757-162.023-100.815-211.919-156.092
			c-31.22-34.587-55.518-71.604-73.358-111.915c58.939-16.099,78.567-16.123,137.54-0.174
			c-13.404,30.356-30.464,58.776-51.433,85.788c-2.561,3.299-1.963,8.05,1.336,10.611s8.05,1.962,10.611-1.336
			c36.297-46.757,61.296-97.573,76.209-155c2.556,3.283,5.529,7.964,8.724,14.312c14.508,28.818,23.023,69.194,17.865,84.711
			c-12.288,36.968-29.01,71.749-51.12,106.33c-2.25,3.519-1.221,8.195,2.298,10.445c1.262,0.807,2.672,1.192,4.066,1.192
			c2.494,0,4.936-1.233,6.379-3.49c22.793-35.649,40.042-71.534,52.73-109.706c4.341-13.062,1.69-32.258-1.299-46.062
			c-3.776-17.44-10.122-35.744-17.41-50.221c-7.847-15.589-15.853-24.945-23.804-27.86c-0.096-0.04-0.196-0.075-0.295-0.112
			c-0.091-0.031-0.182-0.074-0.272-0.103c-0.041-0.014-0.084-0.021-0.126-0.034s-0.082-0.031-0.125-0.043
			c-84.969-24.66-121.639-24.708-205.77-0.14c-0.272,0.057-0.542,0.127-0.809,0.215c-8.137,2.67-16.337,12.116-24.371,28.076
			c-14.69,29.179-26.02,74.288-18.708,96.283c22.697,68.283,61.286,131.788,117.972,194.144
			c50.094,55.104,114.508,109.962,202.717,172.641c2.09,1.485,4.555,2.25,7.046,2.25c1.435,0,2.879-0.255,4.264-0.771
			c3.788-1.415,6.619-4.604,7.573-8.531l29.568-121.812C479.952,375.504,477.452,369.913,472.567,367.29z M348.001,31.062
			c-4.656,18.685-10.403,36.645-17.282,53.973c-63.328-17.199-86.048-17.174-149.33,0.183
			c-6.935-17.418-12.727-35.442-17.393-54.147C238.736,9.752,272.696,9.752,348.001,31.062z M435.408,494.894
			c-85.479-60.979-148.066-114.419-196.738-167.96c-55.238-60.763-92.793-122.501-114.811-188.741
			c-5.158-15.517,3.357-55.893,17.865-84.712c3.196-6.349,6.169-11.03,8.725-14.314c5.224,20.099,11.72,39.434,19.507,58.094
			c0.052,0.124,0.097,0.252,0.156,0.371c18.743,44.794,44.983,85.672,79.309,123.699c50.719,56.188,120.728,107.95,213.989,158.205
			L435.408,494.894z"/>
	</g>
</g>
<g>
	<g>
		<path d="M235.374,376.411c-2.851-3.05-7.635-3.213-10.688-0.362c-40.178,37.536-88.655,76.44-148.093,118.845L48.591,379.538
			c44.456-23.953,82.691-47.642,116.831-72.379c3.382-2.45,4.138-7.179,1.687-10.561c-2.449-3.382-7.179-4.138-10.561-1.687
			c-34.097,24.706-72.405,48.381-117.115,72.378c-4.886,2.623-7.386,8.214-6.08,13.595l29.569,121.813
			c0.953,3.927,3.785,7.116,7.573,8.531c1.385,0.517,2.828,0.771,4.263,0.771c2.491,0,4.957-0.766,7.046-2.25
			c61.618-43.784,111.732-83.903,153.206-122.649C238.062,384.249,238.224,379.463,235.374,376.411z"/>
	</g>
</g>
<g>
</g>
<g>
</g>
<g>
</g>
<g>
</g>
<g>
</g>
<g>
</g>
<g>
</g>
<g>
</g>
<g>
</g>
<g>
</g>
<g>
</g>
<g>
</g>
<g>
</g>
<g>
</g>
<g>
</g>
</svg>
