<?xml version="1.0" encoding="iso-8859-1"?>
<!-- Generator: Adobe Illustrator 19.0.0, SVG Export Plug-In . SVG Version: 6.00 Build 0)  -->
<svg version="1.1" id="Capa_1" xmlns="http://www.w3.org/2000/svg" xmlns:xlink="http://www.w3.org/1999/xlink" x="0px" y="0px"
	 viewBox="0 0 511.999 511.999" style="enable-background:new 0 0 511.999 511.999;" xml:space="preserve">
<g>
	<g>
		<path d="M127.278,37.868c-4.141,0-7.497,3.357-7.497,7.497v38.066c0,4.141,3.356,7.497,7.497,7.497s7.497-3.357,7.497-7.497
			V45.366C134.775,41.225,131.419,37.868,127.278,37.868z"/>
	</g>
</g>
<g>
	<g>
		<path d="M191.639,37.868c-4.141,0-7.497,3.357-7.497,7.497v38.066c0,4.141,3.356,7.497,7.497,7.497s7.497-3.357,7.497-7.497
			V45.366C199.136,41.225,195.78,37.868,191.639,37.868z"/>
	</g>
</g>
<g>
	<g>
		<path d="M255.999,37.868c-4.141,0-7.497,3.357-7.497,7.497v38.066c0,4.141,3.356,7.497,7.497,7.497
			c4.141,0,7.497-3.357,7.497-7.497V45.366C263.496,41.225,260.14,37.868,255.999,37.868z"/>
	</g>
</g>
<g>
	<g>
		<path d="M320.359,37.868c-4.141,0-7.497,3.357-7.497,7.497v38.066c0,4.141,3.356,7.497,7.497,7.497s7.497-3.357,7.497-7.497
			V45.366C327.856,41.225,324.501,37.868,320.359,37.868z"/>
	</g>
</g>
<g>
	<g>
		<path d="M384.72,37.868c-4.141,0-7.497,3.357-7.497,7.497v38.066c0,4.141,3.356,7.497,7.497,7.497s7.497-3.357,7.497-7.497V45.366
			C392.217,41.225,388.861,37.868,384.72,37.868z"/>
	</g>
</g>
<g>
	<g>
		<path d="M433.247,0H78.751C65.855,0,55.364,10.492,55.364,23.387v82.023c0,12.895,10.491,23.387,23.387,23.387h5.854v354.695
			c0,15.719,12.788,28.507,28.507,28.507h285.774c15.719,0,28.507-12.788,28.507-28.507v-51.816c0-4.141-3.356-7.497-7.497-7.497
			c-4.141,0-7.497,3.357-7.497,7.497v51.816c0,7.451-6.062,13.513-13.512,13.513H113.112c-7.45,0-13.512-6.062-13.512-13.513
			v-37.988h43.11c4.141,0,7.497-3.357,7.497-7.497c0-4.141-3.356-7.497-7.497-7.497H99.599v-51.243h64.102
			c4.141,0,7.497-3.357,7.497-7.497c0-4.141-3.356-7.497-7.497-7.497H99.599V313.03h43.11c4.141,0,7.497-3.357,7.497-7.497
			c0-4.141-3.356-7.497-7.497-7.497h-43.11v-51.243h64.102c4.141,0,7.497-3.357,7.497-7.497c0-4.14-3.356-7.497-7.497-7.497H99.599
			V185.27h37.195c4.141,0,7.497-3.357,7.497-7.497s-3.356-7.497-7.497-7.497H99.599v-41.478h312.8v41.478H172.031
			c-4.141,0-7.497,3.357-7.497,7.497s3.356,7.497,7.497,7.497H412.4v211.087c0,4.141,3.356,7.497,7.497,7.497
			c4.141,0,7.497-3.357,7.497-7.497v-267.56h5.854c12.896,0,23.387-10.492,23.387-23.387V23.387C456.634,10.492,446.144,0,433.247,0
			z M441.639,105.41c0,4.628-3.765,8.393-8.392,8.393H78.751c-4.627,0-8.392-3.765-8.392-8.393V23.387
			c0-4.628,3.765-8.393,8.392-8.393h354.496c4.627,0,8.392,3.765,8.392,8.393V105.41z"/>
	</g>
</g>
<g>
</g>
<g>
</g>
<g>
</g>
<g>
</g>
<g>
</g>
<g>
</g>
<g>
</g>
<g>
</g>
<g>
</g>
<g>
</g>
<g>
</g>
<g>
</g>
<g>
</g>
<g>
</g>
<g>
</g>
</svg>
