<?xml version="1.0" encoding="iso-8859-1"?>
<!-- Generator: Adobe Illustrator 19.0.0, SVG Export Plug-In . SVG Version: 6.00 Build 0)  -->
<svg version="1.1" id="Capa_1" xmlns="http://www.w3.org/2000/svg" xmlns:xlink="http://www.w3.org/1999/xlink" x="0px" y="0px"
	 viewBox="0 0 512 512" style="enable-background:new 0 0 512 512;" xml:space="preserve">
<g>
	<g>
		<path d="M255.998,136.879c-4.142,0-7.499,3.358-7.499,7.499v323.179c0,4.142,3.357,7.499,7.499,7.499
			c4.142,0,7.499-3.358,7.499-7.499V144.378C263.497,140.236,260.14,136.879,255.998,136.879z"/>
	</g>
</g>
<g>
	<g>
		<path d="M255.999,45.366c-4.142,0-7.499,3.358-7.499,7.499v56.35c-0.001,4.141,3.357,7.499,7.499,7.499
			c4.142,0,7.499-3.358,7.499-7.499v-56.35C263.498,48.723,260.141,45.366,255.999,45.366z"/>
	</g>
</g>
<g>
	<g>
		<path d="M413.207,0H280.988c-8.163,0-14.811,6.608-14.877,14.757h-16C250.045,6.609,243.397,0,235.234,0H98.791
			C80.717,0,66.012,14.705,66.012,32.78v321.581c0,4.142,3.358,7.499,7.499,7.499c4.142,0,7.499-3.358,7.499-7.499V32.78
			c0-9.804,7.976-17.781,17.78-17.781h136.322c0.065,8.148,6.714,14.757,14.877,14.757h16.241c8.163,0,14.811-6.608,14.878-14.757
			h132.098c9.804,0,17.781,7.976,17.781,17.781v446.44c0,9.804-7.977,17.781-17.781,17.781H281.109
			c-0.066-8.148-6.714-14.757-14.878-14.757H249.99c-8.163,0-14.812,6.608-14.877,14.757H98.791
			c-9.804,0-17.781-7.976-17.781-17.781v-89.863c0-4.142-3.358-7.499-7.499-7.499c-4.142,0-7.499,3.358-7.499,7.499v89.863
			c0,18.075,14.705,32.78,32.78,32.78h136.442c8.163,0,14.811-6.608,14.878-14.757h16c0.065,8.148,6.713,14.757,14.877,14.757
			h132.219c18.075,0,32.78-14.705,32.78-32.78V32.78C445.986,14.705,431.281,0,413.207,0z"/>
	</g>
</g>
<g>
	<g>
		<path d="M165.547,42.852c-25.087,0-45.496,20.409-45.496,45.496c0,25.087,20.409,45.496,45.496,45.496
			c25.087,0,45.496-20.409,45.496-45.496C211.043,63.261,190.634,42.852,165.547,42.852z M165.547,118.844
			c-16.816,0-30.497-13.681-30.497-30.497c0-16.816,13.681-30.497,30.497-30.497c16.816,0,30.497,13.681,30.497,30.497
			C196.044,105.163,182.363,118.844,165.547,118.844z"/>
	</g>
</g>
<g>
	<g>
		<path d="M165.547,156.589c-25.087,0-45.496,20.409-45.496,45.496c0,25.087,20.409,45.496,45.496,45.496
			c25.087,0,45.496-20.409,45.496-45.496C211.043,176.998,190.634,156.589,165.547,156.589z M165.547,232.581
			c-16.816,0-30.497-13.681-30.497-30.497s13.681-30.497,30.497-30.497c16.816,0,30.497,13.681,30.497,30.497
			S182.363,232.581,165.547,232.581z"/>
	</g>
</g>
<g>
	<g>
		<path d="M165.547,270.327c-25.087,0-45.496,20.409-45.496,45.496c0,25.086,20.409,45.496,45.496,45.496
			c25.087,0,45.496-20.409,45.496-45.496C211.043,290.736,190.634,270.327,165.547,270.327z M165.547,346.319
			c-16.816,0-30.497-13.681-30.497-30.497c0-16.816,13.681-30.497,30.497-30.497c16.816,0,30.497,13.681,30.497,30.497
			C196.044,332.638,182.363,346.319,165.547,346.319z"/>
	</g>
</g>
<g>
	<g>
		<path d="M346.45,42.852c-25.087,0-45.496,20.409-45.496,45.496c0,25.087,20.41,45.496,45.496,45.496
			c25.087,0,45.496-20.409,45.496-45.496C391.946,63.261,371.537,42.852,346.45,42.852z M346.45,118.844
			c-16.816,0-30.497-13.681-30.497-30.497c0-16.816,13.681-30.497,30.497-30.497c16.816,0,30.497,13.681,30.497,30.497
			C376.947,105.163,363.266,118.844,346.45,118.844z"/>
	</g>
</g>
<g>
	<g>
		<path d="M346.45,156.589c-25.087,0-45.496,20.409-45.496,45.496c0,25.087,20.41,45.496,45.496,45.496
			c25.087,0,45.496-20.409,45.496-45.496C391.946,176.998,371.537,156.589,346.45,156.589z M346.45,232.581
			c-16.816,0-30.497-13.681-30.497-30.497s13.681-30.497,30.497-30.497c16.816,0,30.497,13.681,30.497,30.497
			S363.266,232.581,346.45,232.581z"/>
	</g>
</g>
<g>
	<g>
		<path d="M346.45,270.327c-25.087,0-45.496,20.409-45.496,45.496c0,25.086,20.41,45.496,45.496,45.496
			c25.087,0,45.496-20.409,45.496-45.496C391.946,290.736,371.537,270.327,346.45,270.327z M346.45,346.319
			c-16.816,0-30.497-13.681-30.497-30.497c0-16.816,13.681-30.497,30.497-30.497c16.816,0,30.497,13.681,30.497,30.497
			C376.947,332.638,363.266,346.319,346.45,346.319z"/>
	</g>
</g>
<g>
	<g>
		<path d="M165.547,384.064c-25.087,0-45.496,20.409-45.496,45.496c0,25.087,20.409,45.496,45.496,45.496
			c25.087,0,45.496-20.409,45.496-45.496C211.043,404.473,190.634,384.064,165.547,384.064z M165.547,460.057
			c-16.816,0-30.497-13.681-30.497-30.497c0-16.817,13.681-30.497,30.497-30.497c16.816,0,30.497,13.681,30.497,30.497
			C196.044,446.376,182.363,460.057,165.547,460.057z"/>
	</g>
</g>
<g>
	<g>
		<path d="M346.45,384.064c-25.087,0-45.496,20.409-45.496,45.496c0,25.087,20.41,45.496,45.496,45.496
			c25.087,0,45.496-20.409,45.496-45.496C391.946,404.473,371.537,384.064,346.45,384.064z M346.45,460.057
			c-16.816,0-30.497-13.681-30.497-30.497c0-16.817,13.681-30.497,30.497-30.497c16.816,0,30.497,13.681,30.497,30.497
			C376.947,446.376,363.266,460.057,346.45,460.057z"/>
	</g>
</g>
<g>
</g>
<g>
</g>
<g>
</g>
<g>
</g>
<g>
</g>
<g>
</g>
<g>
</g>
<g>
</g>
<g>
</g>
<g>
</g>
<g>
</g>
<g>
</g>
<g>
</g>
<g>
</g>
<g>
</g>
</svg>
