<?xml version="1.0" encoding="iso-8859-1"?>
<!-- Generator: Adobe Illustrator 19.0.0, SVG Export Plug-In . SVG Version: 6.00 Build 0)  -->
<svg version="1.1" id="Capa_1" xmlns="http://www.w3.org/2000/svg" xmlns:xlink="http://www.w3.org/1999/xlink" x="0px" y="0px"
	 viewBox="0 0 512 512" style="enable-background:new 0 0 512 512;" xml:space="preserve">
<g>
	<g>
		<path d="M169.365,29.742c-4.143,0-7.502,3.359-7.502,7.502v17.112c0,4.143,3.359,7.502,7.502,7.502s7.502-3.359,7.502-7.502
			V37.244C176.867,33.101,173.508,29.742,169.365,29.742z"/>
	</g>
</g>
<g>
	<g>
		<path d="M212.682,29.742c-4.143,0-7.502,3.359-7.502,7.502v17.112c0,4.143,3.359,7.502,7.502,7.502s7.502-3.359,7.502-7.502
			V37.244C220.184,33.101,216.825,29.742,212.682,29.742z"/>
	</g>
</g>
<g>
	<g>
		<path d="M256,29.742c-4.143,0-7.502,3.359-7.502,7.502v17.112c0,4.143,3.359,7.502,7.502,7.502c4.143,0,7.502-3.359,7.502-7.502
			V37.244C263.502,33.101,260.143,29.742,256,29.742z"/>
	</g>
</g>
<g>
	<g>
		<path d="M299.318,29.742c-4.143,0-7.502,3.359-7.502,7.502v17.112c-0.001,4.143,3.358,7.502,7.502,7.502
			c4.143,0,7.502-3.359,7.502-7.502V37.244C306.82,33.101,303.461,29.742,299.318,29.742z"/>
	</g>
</g>
<g>
	<g>
		<path d="M342.635,29.742c-4.143,0-7.502,3.359-7.502,7.502v17.112c-0.001,4.143,3.358,7.502,7.502,7.502
			c4.143,0,7.502-3.359,7.502-7.502V37.244C350.137,33.101,346.778,29.742,342.635,29.742z"/>
	</g>
</g>
<g>
	<g>
		<path d="M330.603,298.017h-47.572v-47.571c0-5.889-4.791-10.68-10.68-10.68h-32.702c-5.889,0-10.68,4.791-10.68,10.68v47.571
			h-47.572c-5.888,0-10.679,4.791-10.679,10.68v32.702c0,5.889,4.791,10.68,10.679,10.68h47.572v47.571
			c0,5.889,4.791,10.68,10.68,10.68h32.702c5.889,0,10.68-4.791,10.68-10.68v-47.571h47.572c5.888,0,10.679-4.791,10.679-10.68
			v-32.702C341.282,302.808,336.491,298.017,330.603,298.017z M326.278,337.074h-50.749c-4.143,0-7.502,3.359-7.502,7.502v50.749
			h-24.053v-50.749c0-4.143-3.359-7.502-7.502-7.502h-50.749v-24.053h50.749c4.143,0,7.502-3.359,7.502-7.502V254.77h24.053v50.749
			c0,4.143,3.359,7.502,7.502,7.502h50.749V337.074z"/>
	</g>
</g>
<g>
	<g>
		<path d="M401.473,147.688l-36.653-32.995V91.599h6.472c12.241,0,22.201-9.959,22.201-22.201V22.201
			C393.493,9.959,383.533,0,371.292,0H140.708c-12.241,0-22.201,9.959-22.201,22.201v47.197c0,12.241,9.959,22.201,22.201,22.201
			h6.472v23.094l-36.653,32.995c-13.072,11.768-20.569,28.605-20.569,46.194v279.699c0,21.184,17.235,38.419,38.419,38.419h255.246
			c21.184,0,38.419-17.234,38.419-38.419V193.882C422.042,176.293,414.545,159.456,401.473,147.688z M140.708,76.594L140.708,76.594
			c-3.968,0.001-7.196-3.227-7.196-7.195V22.201c0-3.968,3.228-7.197,7.196-7.197h230.584c3.968,0,7.196,3.228,7.196,7.197v47.197
			c0,3.968-3.228,7.196-7.196,7.196H140.708z M349.816,91.599v18.933H162.184V91.599H349.816z M407.038,433.432H361.78
			c-4.143,0-7.502,3.359-7.502,7.502s3.359,7.502,7.502,7.502h45.258v25.145c0,12.911-10.504,23.414-23.415,23.414H128.377
			c-12.911,0-23.415-10.503-23.415-23.414v-25.145h221.391c4.143,0,7.502-3.359,7.502-7.502s-3.359-7.502-7.502-7.502H104.962
			V211.831h45.258c4.143,0,7.502-3.359,7.502-7.502s-3.359-7.502-7.502-7.502h-45.258v-2.945c0-13.343,5.687-26.115,15.604-35.042
			l36.995-33.304h196.877l36.995,33.304c9.917,8.927,15.604,21.7,15.604,35.042v2.945H185.48c-4.143,0-7.502,3.359-7.502,7.502
			s3.359,7.502,7.502,7.502h221.558V433.432z"/>
	</g>
</g>
<g>
</g>
<g>
</g>
<g>
</g>
<g>
</g>
<g>
</g>
<g>
</g>
<g>
</g>
<g>
</g>
<g>
</g>
<g>
</g>
<g>
</g>
<g>
</g>
<g>
</g>
<g>
</g>
<g>
</g>
</svg>
