<?xml version="1.0" encoding="iso-8859-1"?>
<!-- Generator: Adobe Illustrator 19.0.0, SVG Export Plug-In . SVG Version: 6.00 Build 0)  -->
<svg version="1.1" id="Capa_1" xmlns="http://www.w3.org/2000/svg" xmlns:xlink="http://www.w3.org/1999/xlink" x="0px" y="0px"
	 viewBox="0 0 511.999 511.999" style="enable-background:new 0 0 511.999 511.999;" xml:space="preserve">
<g>
	<g>
		<path d="M461.853,43.432h-6.515V18.596C455.337,8.342,446.996,0,436.741,0H75.259C65.004,0,56.661,8.342,56.661,18.596v24.835
			h-6.515c-4.14,0-7.495,3.355-7.495,7.495c0,4.14,3.355,7.495,7.495,7.495h6.515v64.665c0,4.14,3.355,7.495,7.495,7.495
			c4.14,0,7.495-3.355,7.495-7.495V58.422h368.695v434.982c0,1.988-1.618,3.606-3.606,3.606H75.259
			c-1.988,0-3.606-1.618-3.606-3.606V158.73c0-4.14-3.355-7.495-7.495-7.495c-4.14,0-7.495,3.355-7.495,7.495v334.673
			c0,10.254,8.342,18.596,18.596,18.596h361.483c10.254,0,18.596-8.342,18.596-18.596V58.422h6.515c4.14,0,7.495-3.355,7.495-7.495
			S465.993,43.432,461.853,43.432z M71.651,43.432V18.596c0-1.988,1.618-3.606,3.606-3.606h361.483c1.988,0,3.606,1.618,3.606,3.606
			v24.836H71.651z"/>
	</g>
</g>
<g>
	<g>
		<path d="M419.78,395.784c4.14,0,7.495-3.355,7.495-7.495V97.339c0-8.441-6.868-15.308-15.308-15.308H100.033
			c-8.441,0-15.308,6.868-15.308,15.308v371.29c0,8.441,6.868,15.307,15.308,15.307h311.933c8.441,0,15.308-6.867,15.308-15.307
			v-44.988c0-4.14-3.355-7.495-7.495-7.495c-4.14,0-7.495,3.355-7.495,7.495v44.988c0,0.175-0.142,0.317-0.318,0.317H100.033
			c-0.176,0-0.318-0.142-0.318-0.317V97.339c0-0.176,0.142-0.318,0.318-0.318h311.933c0.176,0,0.318,0.142,0.318,0.318v290.95
			C412.285,392.429,415.639,395.784,419.78,395.784z"/>
	</g>
</g>
<g>
	<g>
		<path d="M364.316,351.798c-0.007-0.007-0.012-0.014-0.019-0.021c-0.006-0.006-0.013-0.011-0.02-0.018
			c-23.97-23.95-62.957-23.943-86.922,0.018c-23.969,23.97-23.969,62.972,0,86.941c11.986,11.986,27.728,17.978,43.471,17.978
			c15.743,0,31.485-5.992,43.471-17.977C388.259,414.756,388.264,375.77,364.316,351.798z M287.954,362.379
			c9.064-9.063,20.966-13.594,32.871-13.594c9.532,0,19.063,2.915,27.137,8.727l-64.874,64.874
			C270.017,404.23,271.634,378.699,287.954,362.379z M353.696,428.119c-16.32,16.32-41.852,17.937-60.007,4.867l64.874-64.874
			C371.632,386.268,370.015,411.799,353.696,428.119z"/>
	</g>
</g>
<g>
	<g>
		<path d="M220.363,270.695c-23.972-23.969-62.972-23.969-86.942,0c-23.969,23.97-23.969,62.972,0,86.941
			c11.985,11.984,27.728,17.977,43.471,17.977c15.743,0,31.485-5.992,43.471-17.977
			C244.332,333.666,244.332,294.664,220.363,270.695z M144.02,281.295c9.062-9.062,20.966-13.594,32.87-13.594
			c9.534,0,19.063,2.914,27.137,8.727l-64.874,64.874C126.083,323.147,127.7,297.615,144.02,281.295z M209.762,347.035
			c-16.32,16.32-41.851,17.937-60.007,4.867l64.874-64.874C227.699,305.184,226.082,330.715,209.762,347.035z"/>
	</g>
</g>
<g>
	<g>
		<path d="M350.028,203.432c-23.97-23.969-62.973-23.971-86.94,0c-11.612,11.612-18.007,27.049-18.007,43.47
			c0,16.421,6.395,31.859,18.006,43.471c11.985,11.984,27.728,17.977,43.471,17.977c15.742-0.001,31.484-5.994,43.47-17.978
			C373.997,266.401,373.997,227.4,350.028,203.432z M260.072,246.901c0-12.417,4.836-24.09,13.616-32.869
			c9.062-9.062,20.966-13.594,32.87-13.594c9.534,0,19.063,2.914,27.137,8.727l-64.877,64.876
			C263.142,266.186,260.072,256.782,260.072,246.901z M339.427,279.772c-16.32,16.32-41.851,17.937-60.007,4.867l64.874-64.873
			C357.364,237.921,355.747,263.452,339.427,279.772z"/>
	</g>
</g>
<g>
</g>
<g>
</g>
<g>
</g>
<g>
</g>
<g>
</g>
<g>
</g>
<g>
</g>
<g>
</g>
<g>
</g>
<g>
</g>
<g>
</g>
<g>
</g>
<g>
</g>
<g>
</g>
<g>
</g>
</svg>
